{
	"asset":{
		"generator":"Khronos glTF Blender I/O v5.0.21",
		"version":"2.0"
	},
	"extensionsUsed":[
		"KHR_materials_specular"
	],
	"scene":0,
	"scenes":[
		{
			"name":"Scene",
			"nodes":[
				68
			]
		}
	],
	"nodes":[
		{
			"name":"mixamorig:HeadTop_End",
			"rotation":[
				0,
				-1.443930240776065e-31,
				-9.860759434471686e-31,
				1
			],
			"scale":[
				1,
				1.0000001192092896,
				1
			],
			"translation":[
				1.52587890625e-05,
				46.29899978637695,
				-21.12679672241211
			]
		},
		{
			"children":[
				0
			],
			"name":"mixamorig:Head",
			"rotation":[
				-4.68484628868282e-09,
				-3.4445642617512783e-31,
				-6.656013887802287e-31,
				1
			],
			"scale":[
				1,
				1.0000001192092896,
				1
			],
			"translation":[
				1.52587890625e-05,
				7.527024269104004,
				-3.434671640396118
			]
		},
		{
			"children":[
				1
			],
			"name":"mixamorig:Neck",
			"rotation":[
				0.03814215958118439,
				-4.234738738256037e-18,
				3.40386741124592e-17,
				0.999272346496582
			],
			"scale":[
				1,
				1,
				0.9999999403953552
			],
			"translation":[
				0,
				15.067134857177734,
				-1.971756091734278e-13
			]
		},
		{
			"name":"mixamorig:LeftHandThumb4",
			"rotation":[
				-7.729977369308472e-08,
				-9.685754776000977e-08,
				-5.867332220077515e-07,
				1
			],
			"translation":[
				-0.543978214263916,
				3.2111520767211914,
				1.9550323486328125e-05
			]
		},
		{
			"children":[
				3
			],
			"name":"mixamorig:LeftHandThumb3",
			"rotation":[
				0.05396847426891327,
				-3.467244766852673e-07,
				1.2124861825668631e-07,
				0.9985426664352417
			],
			"scale":[
				1.0000001192092896,
				1.0000001192092896,
				1
			],
			"translation":[
				0.11183500289916992,
				4.093376636505127,
				1.2278556823730469e-05
			]
		},
		{
			"children":[
				4
			],
			"name":"mixamorig:LeftHandThumb2",
			"rotation":[
				-0.020359963178634644,
				6.490335522357782e-07,
				2.626874220368336e-07,
				0.999792754650116
			],
			"translation":[
				0.43213915824890137,
				4.103555202484131,
				-2.4080276489257812e-05
			]
		},
		{
			"children":[
				5
			],
			"name":"mixamorig:LeftHandThumb1",
			"rotation":[
				0.2034550905227661,
				0.09162070602178574,
				0.40026217699050903,
				0.8888205289840698
			],
			"scale":[
				0.9999998807907104,
				0.9999999403953552,
				1
			],
			"translation":[
				-3.1004674434661865,
				3.4656789302825928,
				2.231365203857422
			]
		},
		{
			"name":"mixamorig:LeftHandIndex4",
			"rotation":[
				9.313225746154785e-09,
				-1.862645149230957e-09,
				1.3969847501016375e-09,
				1
			],
			"scale":[
				1,
				0.9999999403953552,
				1
			],
			"translation":[
				0.024343490600585938,
				2.61667799949646,
				3.415346145629883e-05
			]
		},
		{
			"children":[
				7
			],
			"name":"mixamorig:LeftHandIndex3",
			"rotation":[
				-0.15126973390579224,
				-3.768657830249822e-09,
				-3.820477161298186e-07,
				0.9884925484657288
			],
			"scale":[
				1,
				0.9999999403953552,
				1
			],
			"translation":[
				-0.049902915954589844,
				3.2578206062316895,
				-8.940696716308594e-06
			]
		},
		{
			"children":[
				8
			],
			"name":"mixamorig:LeftHandIndex2",
			"rotation":[
				0.15184667706489563,
				-3.754861666038778e-07,
				3.948022708755161e-07,
				0.9884040951728821
			],
			"translation":[
				0.025562763214111328,
				3.353933811187744,
				-6.854534149169922e-07
			]
		},
		{
			"children":[
				9
			],
			"name":"mixamorig:LeftHandIndex1",
			"rotation":[
				0.0035807457752525806,
				0.0003224981192033738,
				0.08968663215637207,
				0.9959635734558105
			],
			"scale":[
				0.9999999403953552,
				1.0000001192092896,
				1
			],
			"translation":[
				-4.0396037101745605,
				12.607421875,
				0.046641528606414795
			]
		},
		{
			"name":"mixamorig:LeftHandMiddle4",
			"rotation":[
				-1.210719347000122e-08,
				-7.450580596923828e-09,
				-4.656612873077393e-10,
				1
			],
			"translation":[
				-0.005424976348876953,
				3.109450101852417,
				-3.039836883544922e-06
			]
		},
		{
			"children":[
				11
			],
			"name":"mixamorig:LeftHandMiddle3",
			"rotation":[
				-0.05691855028271675,
				3.242301318095997e-06,
				-3.467814053692564e-07,
				0.9983788132667542
			],
			"scale":[
				0.9999999403953552,
				1,
				0.9999999403953552
			],
			"translation":[
				-0.018849611282348633,
				3.739067792892456,
				5.125999450683594e-06
			]
		},
		{
			"children":[
				12
			],
			"name":"mixamorig:LeftHandMiddle2",
			"rotation":[
				0.1904609650373459,
				1.0852998002519598e-06,
				1.3186770786433044e-07,
				0.981694757938385
			],
			"scale":[
				0.9999998807907104,
				0.9999998211860657,
				0.9999998807907104
			],
			"translation":[
				0.024280786514282227,
				3.963312864303589,
				1.5735626220703125e-05
			]
		},
		{
			"children":[
				13
			],
			"name":"mixamorig:LeftHandMiddle1",
			"rotation":[
				0.015112966299057007,
				-7.336763519560918e-05,
				-0.004759279545396566,
				0.999874472618103
			],
			"scale":[
				0.9999998807907104,
				1,
				0.9999999403953552
			],
			"translation":[
				-1.1471941471099854,
				12.734633445739746,
				0.015971332788467407
			]
		},
		{
			"name":"mixamorig:LeftHandRing4",
			"rotation":[
				7.420021574944258e-08,
				7.62520357966423e-09,
				1.0943038475375033e-08,
				1
			],
			"scale":[
				1.0000001192092896,
				1.0000001192092896,
				1
			],
			"translation":[
				0.0008913129568099976,
				2.8928873538970947,
				-1.8477439880371094e-06
			]
		},
		{
			"children":[
				15
			],
			"name":"mixamorig:LeftHandRing3",
			"rotation":[
				-0.05298684537410736,
				-3.038124134491227e-07,
				-2.564741752308919e-09,
				0.9985951781272888
			],
			"scale":[
				1.0000001192092896,
				0.9999999403953552,
				0.9999999403953552
			],
			"translation":[
				0.004242315888404846,
				3.426100015640259,
				-1.3533979654312134e-05
			]
		},
		{
			"children":[
				16
			],
			"name":"mixamorig:LeftHandRing2",
			"rotation":[
				0.15198419988155365,
				4.3786056380668015e-07,
				-4.8821302556234514e-08,
				0.9883829355239868
			],
			"scale":[
				1,
				1.0000001192092896,
				1.0000001192092896
			],
			"translation":[
				-0.005134373903274536,
				3.566394567489624,
				3.555230796337128e-05
			]
		},
		{
			"children":[
				17
			],
			"name":"mixamorig:LeftHandRing1",
			"rotation":[
				0.03604763746261597,
				-0.0026292428374290466,
				-0.07265906780958176,
				0.9967017769813538
			],
			"scale":[
				0.9999999403953552,
				0.9999999403953552,
				1
			],
			"translation":[
				1.3946059942245483,
				12.663753509521484,
				-0.36667412519454956
			]
		},
		{
			"name":"mixamorig:LeftHandPinky4",
			"rotation":[
				-4.111789451144432e-07,
				1.8216671833215514e-06,
				-1.8370339205375785e-07,
				1
			],
			"scale":[
				0.9999999403953552,
				1,
				0.9999999403953552
			],
			"translation":[
				-0.015761613845825195,
				2.040287971496582,
				-3.7848949432373047e-06
			]
		},
		{
			"children":[
				19
			],
			"name":"mixamorig:LeftHandPinky3",
			"rotation":[
				-0.14920948445796967,
				2.6760774289869005e-06,
				7.999389026736026e-07,
				0.9888055920600891
			],
			"scale":[
				0.9999998807907104,
				0.9999998807907104,
				1.0000001192092896
			],
			"translation":[
				0.016498088836669922,
				2.7294106483459473,
				3.075599670410156e-05
			]
		},
		{
			"children":[
				20
			],
			"name":"mixamorig:LeftHandPinky2",
			"rotation":[
				0.09472626447677612,
				-1.6252485011136741e-06,
				-6.378556918207323e-07,
				0.9955033659934998
			],
			"scale":[
				0.9999998807907104,
				0.9999998807907104,
				0.9999999403953552
			],
			"translation":[
				-0.0007364749908447266,
				3.3848934173583984,
				2.1457672119140625e-06
			]
		},
		{
			"children":[
				21
			],
			"name":"mixamorig:LeftHandPinky1",
			"rotation":[
				0.05555752292275429,
				-0.007203627377748489,
				-0.1283280998468399,
				0.9901481866836548
			],
			"scale":[
				1,
				0.9999998807907104,
				0.9999999403953552
			],
			"translation":[
				3.792191982269287,
				11.661246299743652,
				0.0009261518716812134
			]
		},
		{
			"children":[
				6,
				10,
				14,
				18,
				22
			],
			"name":"mixamorig:LeftHand",
			"rotation":[
				0.10421976447105408,
				-0.054696377366781235,
				-0.03685292229056358,
				0.9923650622367859
			],
			"scale":[
				0.9999998807907104,
				0.9999998807907104,
				0.9999997615814209
			],
			"translation":[
				-2.205371856689453e-06,
				25.83836555480957,
				-2.1532177925109863e-05
			]
		},
		{
			"children":[
				23
			],
			"name":"mixamorig:LeftForeArm",
			"rotation":[
				0.02771642990410328,
				0.004714039620012045,
				0.16759474575519562,
				0.9854550361633301
			],
			"scale":[
				1.0000001192092896,
				1.0000001192092896,
				1.0000001192092896
			],
			"translation":[
				1.430511474609375e-06,
				29.052074432373047,
				6.9141387939453125e-06
			]
		},
		{
			"children":[
				24
			],
			"name":"mixamorig:LeftArm",
			"rotation":[
				0.2861045002937317,
				0.10162801295518875,
				-0.030532561242580414,
				0.952304482460022
			],
			"scale":[
				1,
				1,
				0.9999999403953552
			],
			"translation":[
				1.4901161193847656e-06,
				13.7073335647583,
				1.4156103134155273e-05
			]
		},
		{
			"children":[
				25
			],
			"name":"mixamorig:LeftShoulder",
			"rotation":[
				0.5965129137039185,
				0.3712177574634552,
				-0.6130024194717407,
				0.36138325929641724
			],
			"scale":[
				0.9999997615814209,
				0.9999998211860657,
				1
			],
			"translation":[
				5.896331787109375,
				11.91830825805664,
				-0.16234827041625977
			]
		},
		{
			"name":"mixamorig:RightHandThumb4",
			"rotation":[
				-1.3737006199221469e-08,
				1.3737007087399888e-08,
				-1.303851426825986e-08,
				1
			],
			"scale":[
				1,
				1.0000001192092896,
				1.0000001192092896
			],
			"translation":[
				0.2249279022216797,
				3.125605583190918,
				-2.4437904357910156e-06
			]
		},
		{
			"children":[
				27
			],
			"name":"mixamorig:RightHandThumb3",
			"rotation":[
				-0.011374205350875854,
				5.365930633161042e-07,
				0,
				0.9999353289604187
			],
			"scale":[
				0.9999999403953552,
				0.9999999403953552,
				0.9999998211860657
			],
			"translation":[
				0.1364612579345703,
				3.9541215896606445,
				-8.58306884765625e-06
			]
		},
		{
			"children":[
				28
			],
			"name":"mixamorig:RightHandThumb2",
			"rotation":[
				0.004862429108470678,
				-7.916334965329952e-08,
				4.395894563913316e-07,
				0.9999881982803345
			],
			"translation":[
				-0.3613853454589844,
				4.167355060577393,
				-1.1682510375976562e-05
			]
		},
		{
			"children":[
				29
			],
			"name":"mixamorig:RightHandThumb1",
			"rotation":[
				0.19951771199703217,
				-0.08582582324743271,
				-0.3857225179672241,
				0.8966854214668274
			],
			"scale":[
				0.9999998807907104,
				0.9999999403953552,
				0.9999998807907104
			],
			"translation":[
				3.114366054534912,
				3.5723605155944824,
				2.208834648132324
			]
		},
		{
			"name":"mixamorig:RightHandIndex4",
			"rotation":[
				1.4901162970204496e-08,
				-7.450581485102248e-09,
				1.4901162970204496e-08,
				1
			],
			"scale":[
				0.9999999403953552,
				0.9999998807907104,
				0.9999998807907104
			],
			"translation":[
				-0.008467674255371094,
				2.6965601444244385,
				1.1742115020751953e-05
			]
		},
		{
			"children":[
				31
			],
			"name":"mixamorig:RightHandIndex3",
			"rotation":[
				-0.10017165541648865,
				2.345224629607401e-06,
				-1.9703443854268698e-07,
				0.9949702024459839
			],
			"scale":[
				1,
				0.9999999403953552,
				0.9999999403953552
			],
			"translation":[
				0.03357529640197754,
				3.1709225177764893,
				-1.9073486328125e-05
			]
		},
		{
			"children":[
				32
			],
			"name":"mixamorig:RightHandIndex2",
			"rotation":[
				0.1371762752532959,
				-4.701053435418601e-10,
				-2.797126796849625e-07,
				0.9905466437339783
			],
			"scale":[
				1,
				1.0000001192092896,
				1
			],
			"translation":[
				-0.025113940238952637,
				3.4437878131866455,
				6.5267086029052734e-06
			]
		},
		{
			"children":[
				33
			],
			"name":"mixamorig:RightHandIndex1",
			"rotation":[
				0.03418179601430893,
				-0.002945376792922616,
				-0.0857674703001976,
				0.9957243204116821
			],
			"scale":[
				0.9999999403953552,
				1,
				0.9999998807907104
			],
			"translation":[
				4.175455570220947,
				12.720675468444824,
				-0.01912890374660492
			]
		},
		{
			"name":"mixamorig:RightHandMiddle4",
			"rotation":[
				5.587934559514451e-09,
				4.3393805526648066e-07,
				-3.2945532524308874e-08,
				1
			],
			"scale":[
				1.0000001192092896,
				1.0000001192092896,
				1.0000001192092896
			],
			"translation":[
				-0.00021409988403320312,
				3.051358699798584,
				3.337860107421875e-06
			]
		},
		{
			"children":[
				35
			],
			"name":"mixamorig:RightHandMiddle3",
			"rotation":[
				-0.08600468933582306,
				1.546662474538607e-06,
				-1.8187436978678306e-07,
				0.9962947368621826
			],
			"scale":[
				0.9999999403953552,
				1,
				0.9999998807907104
			],
			"translation":[
				0.006512641906738281,
				3.681365728378296,
				4.410743713378906e-06
			]
		},
		{
			"children":[
				36
			],
			"name":"mixamorig:RightHandMiddle2",
			"rotation":[
				0.15894779562950134,
				-1.7323977772321086e-06,
				4.975985916644277e-07,
				0.9872869849205017
			],
			"scale":[
				1.0000001192092896,
				1.0000001192092896,
				1.0000001192092896
			],
			"translation":[
				-0.0062923431396484375,
				3.833482503890991,
				-1.3172626495361328e-05
			]
		},
		{
			"children":[
				37
			],
			"name":"mixamorig:RightHandMiddle1",
			"rotation":[
				0.05809686332941055,
				0.00039728303090669215,
				0.006800211500376463,
				0.9982877373695374
			],
			"scale":[
				0.9999999403953552,
				0.9999999403953552,
				1
			],
			"translation":[
				1.2134130001068115,
				13.113812446594238,
				-0.1691107153892517
			]
		},
		{
			"name":"mixamorig:RightHandRing4",
			"rotation":[
				-8.840288501232862e-09,
				-7.385824574157596e-08,
				3.3760443329811096e-09,
				1
			],
			"translation":[
				-0.0034095942974090576,
				2.7554514408111572,
				6.319023668766022e-06
			]
		},
		{
			"children":[
				39
			],
			"name":"mixamorig:RightHandRing3",
			"rotation":[
				-0.06220627948641777,
				-2.756742389919964e-07,
				1.2684733263768067e-08,
				0.998063325881958
			],
			"scale":[
				1,
				0.9999998807907104,
				0.9999999403953552
			],
			"translation":[
				-0.017519131302833557,
				3.3875856399536133,
				3.6032870411872864e-05
			]
		},
		{
			"children":[
				40
			],
			"name":"mixamorig:RightHandRing2",
			"rotation":[
				0.1731126308441162,
				8.220802527603155e-08,
				-2.625515094223374e-08,
				0.984902024269104
			],
			"scale":[
				0.9999999403953552,
				1,
				1
			],
			"translation":[
				0.02092890441417694,
				3.589792490005493,
				3.0677765607833862e-06
			]
		},
		{
			"children":[
				41
			],
			"name":"mixamorig:RightHandRing1",
			"rotation":[
				0.03867260739207268,
				0.0028865693602710962,
				0.07439539581537247,
				0.9964745044708252
			],
			"scale":[
				0.9999999403953552,
				1,
				0.9999998807907104
			],
			"translation":[
				-1.3569259643554688,
				12.927776336669922,
				-0.3266882002353668
			]
		},
		{
			"name":"mixamorig:RightHandPinky4",
			"rotation":[
				-1.1059455573558807e-09,
				1.731386873871088e-07,
				-3.7953213904984295e-09,
				1
			],
			"translation":[
				-0.0013706684112548828,
				1.9464584589004517,
				-8.508563041687012e-06
			]
		},
		{
			"children":[
				43
			],
			"name":"mixamorig:RightHandPinky3",
			"rotation":[
				-0.03379468992352486,
				-1.404654426551133e-06,
				-2.8607846047634666e-07,
				0.9994288086891174
			],
			"scale":[
				1.0000001192092896,
				1.000000238418579,
				1.000000238418579
			],
			"translation":[
				-0.013677597045898438,
				2.460205554962158,
				-2.2426247596740723e-05
			]
		},
		{
			"children":[
				44
			],
			"name":"mixamorig:RightHandPinky2",
			"rotation":[
				0.07400640845298767,
				9.302530997956637e-06,
				1.0961461072156453e-07,
				0.9972577691078186
			],
			"scale":[
				0.9999998807907104,
				0.9999998807907104,
				0.9999999403953552
			],
			"translation":[
				0.015047073364257812,
				3.0481984615325928,
				-2.031773328781128e-05
			]
		},
		{
			"children":[
				45
			],
			"name":"mixamorig:RightHandPinky1",
			"rotation":[
				0.08261003345251083,
				0.011493571102619171,
				0.13736969232559204,
				0.9870020747184753
			],
			"scale":[
				0.9999998807907104,
				1.0000001192092896,
				1
			],
			"translation":[
				-4.031954765319824,
				12.576763153076172,
				-0.0858142226934433
			]
		},
		{
			"children":[
				30,
				34,
				38,
				42,
				46
			],
			"name":"mixamorig:RightHand",
			"rotation":[
				0.08867202699184418,
				0.03224824368953705,
				0.04060616344213486,
				0.9947102665901184
			],
			"scale":[
				0.9999999403953552,
				1,
				1
			],
			"translation":[
				6.854534149169922e-06,
				25.807392120361328,
				1.428648829460144e-05
			]
		},
		{
			"children":[
				47
			],
			"name":"mixamorig:RightForeArm",
			"rotation":[
				0.03948400169610977,
				-0.006170162931084633,
				-0.15427131950855255,
				0.9872199892997742
			],
			"scale":[
				0.9999999403953552,
				1,
				1
			],
			"translation":[
				-9.5367431640625e-07,
				29.023643493652344,
				-7.927417755126953e-06
			]
		},
		{
			"children":[
				48
			],
			"name":"mixamorig:RightArm",
			"rotation":[
				0.28505265712738037,
				-0.07540753483772278,
				0.022501565515995026,
				0.9552760720252991
			],
			"scale":[
				1,
				0.9999999403953552,
				0.9999998807907104
			],
			"translation":[
				-2.384185791015625e-06,
				13.707320213317871,
				3.1888484954833984e-05
			]
		},
		{
			"children":[
				49
			],
			"name":"mixamorig:RightShoulder",
			"rotation":[
				0.5881550312042236,
				-0.37636545300483704,
				0.6203256845474243,
				0.35723772644996643
			],
			"scale":[
				0.9999997615814209,
				0.9999999403953552,
				1
			],
			"translation":[
				-5.896331787109375,
				11.930224418640137,
				-0.3182063102722168
			]
		},
		{
			"children":[
				2,
				26,
				50
			],
			"name":"mixamorig:Spine2",
			"rotation":[
				5.587935447692871e-09,
				5.293955920339377e-23,
				7.85146001446145e-24,
				1
			],
			"scale":[
				1,
				0.9999999403953552,
				1
			],
			"translation":[
				0,
				13.393011093139648,
				-4.768373287333816e-07
			]
		},
		{
			"children":[
				51
			],
			"name":"mixamorig:Spine1",
			"rotation":[
				1.4901162970204496e-08,
				7.94093451159779e-23,
				1.4870392517154285e-23,
				1
			],
			"scale":[
				1,
				0.9999998807907104,
				0.9999999403953552
			],
			"translation":[
				-3.0517578125e-05,
				11.718880653381348,
				-9.536745437799254e-07
			]
		},
		{
			"children":[
				52
			],
			"name":"mixamorig:Spine",
			"rotation":[
				-0.03814218193292618,
				4.2345931544682276e-18,
				-3.403869727351635e-17,
				0.999272346496582
			],
			"translation":[
				-1.52587890625e-05,
				10.015541076660156,
				-0.76570063829422
			]
		},
		{
			"name":"mixamorig:LeftToe_End",
			"rotation":[
				4.239336703903973e-08,
				7.041171556920744e-08,
				-1.2223608791828156e-09,
				1
			],
			"scale":[
				1,
				1.0000001192092896,
				1
			],
			"translation":[
				1.3649463653564453e-05,
				7.134287357330322,
				-1.7136335372924805e-07
			]
		},
		{
			"children":[
				54
			],
			"name":"mixamorig:LeftToeBase",
			"rotation":[
				0.28964677453041077,
				-0.057154521346092224,
				0.017329785972833633,
				0.9552684426307678
			],
			"scale":[
				1,
				1,
				1.0000001192092896
			],
			"translation":[
				-4.2067840695381165e-06,
				18.887948989868164,
				1.1920928955078125e-07
			]
		},
		{
			"children":[
				55
			],
			"name":"mixamorig:LeftFoot",
			"rotation":[
				0.4997752904891968,
				0.027289962396025658,
				-0.01575685665011406,
				0.8655816912651062
			],
			"scale":[
				1.0000001192092896,
				1,
				1.0000001192092896
			],
			"translation":[
				-1.5059486031532288e-06,
				39.25990676879883,
				-1.475214958190918e-06
			]
		},
		{
			"children":[
				56
			],
			"name":"mixamorig:LeftLeg",
			"rotation":[
				0.009784100577235222,
				-0.00025495272711850703,
				-0.02590557001531124,
				0.9996165037155151
			],
			"scale":[
				0.9999998807907104,
				0.9999999403953552,
				1
			],
			"translation":[
				7.078051567077637e-07,
				44.12770462036133,
				-6.688060238957405e-08
			]
		},
		{
			"children":[
				57
			],
			"name":"mixamorig:LeftUpLeg",
			"rotation":[
				0.0015178030589595437,
				0.044139619916677475,
				-0.9984350204467773,
				0.03430579602718353
			],
			"scale":[
				1.0000011920928955,
				0.9999998807907104,
				1.0000020265579224
			],
			"translation":[
				8.11279296875,
				-5.540077209472656,
				0.3014908730983734
			]
		},
		{
			"name":"mixamorig:RightToe_End",
			"rotation":[
				-5.0091333747559474e-08,
				1.2570944818435237e-07,
				-3.812601789832115e-09,
				1
			],
			"scale":[
				1,
				0.9999999403953552,
				1
			],
			"translation":[
				3.018602728843689e-05,
				7.369325637817383,
				2.8908252716064453e-06
			]
		},
		{
			"children":[
				59
			],
			"name":"mixamorig:RightToeBase",
			"rotation":[
				0.2848673164844513,
				0.057114746421575546,
				-0.017006348818540573,
				0.9567127823829651
			],
			"scale":[
				1,
				0.9999999403953552,
				1.0000001192092896
			],
			"translation":[
				-1.3539567589759827e-05,
				19.17816734313965,
				2.086162567138672e-06
			]
		},
		{
			"children":[
				60
			],
			"name":"mixamorig:RightFoot",
			"rotation":[
				0.5013118982315063,
				-0.026732927188277245,
				0.015498263761401176,
				0.8647147417068481
			],
			"scale":[
				0.9999999403953552,
				0.9999998211860657,
				0.9999998807907104
			],
			"translation":[
				-9.885057806968689e-06,
				39.24281311035156,
				1.1920928955078125e-07
			]
		},
		{
			"children":[
				61
			],
			"name":"mixamorig:RightLeg",
			"rotation":[
				0.016589101403951645,
				0.00042901755659841,
				0.025874970480799675,
				0.9995274543762207
			],
			"scale":[
				0.9999999403953552,
				1,
				1.0000001192092896
			],
			"translation":[
				-2.0507723093032837e-05,
				44.15584182739258,
				7.462222129106522e-07
			]
		},
		{
			"children":[
				62
			],
			"name":"mixamorig:RightUpLeg",
			"rotation":[
				0.0016320873983204365,
				-0.04760891571640968,
				0.99827641248703,
				0.03427891805768013
			],
			"scale":[
				0.999997615814209,
				0.9999998211860657,
				0.9999954700469971
			],
			"translation":[
				-8.112823486328125,
				-5.540077209472656,
				0.4466415345668793
			]
		},
		{
			"children":[
				53,
				58,
				63
			],
			"name":"mixamorig:Hips",
			"rotation":[
				-0.7071067690849304,
				3.1401848636255743e-16,
				-3.1401848636255743e-16,
				0.7071067690849304
			],
			"translation":[
				0.21038818359375,
				-1.9209336042404175,
				-99.73385620117188
			]
		},
		{
			"mesh":0,
			"name":"body",
			"skin":0
		},
		{
			"mesh":1,
			"name":"hair",
			"skin":0
		},
		{
			"mesh":2,
			"name":"pants",
			"skin":0
		},
		{
			"children":[
				65,
				66,
				67,
				64
			],
			"name":"Armature.001",
			"rotation":[
				0.7071068286895752,
				0,
				0,
				0.7071068286895752
			],
			"scale":[
				0.009999999776482582,
				0.009999999776482582,
				0.009999999776482582
			],
			"translation":[
				-2.196889638900757,
				0,
				0
			]
		}
	],
	"animations":[
		{
			"channels":[
				{
					"sampler":0,
					"target":{
						"node":64,
						"path":"translation"
					}
				},
				{
					"sampler":1,
					"target":{
						"node":64,
						"path":"rotation"
					}
				},
				{
					"sampler":2,
					"target":{
						"node":64,
						"path":"scale"
					}
				},
				{
					"sampler":3,
					"target":{
						"node":53,
						"path":"translation"
					}
				},
				{
					"sampler":4,
					"target":{
						"node":53,
						"path":"rotation"
					}
				},
				{
					"sampler":5,
					"target":{
						"node":53,
						"path":"scale"
					}
				},
				{
					"sampler":6,
					"target":{
						"node":52,
						"path":"translation"
					}
				},
				{
					"sampler":7,
					"target":{
						"node":52,
						"path":"rotation"
					}
				},
				{
					"sampler":8,
					"target":{
						"node":52,
						"path":"scale"
					}
				},
				{
					"sampler":9,
					"target":{
						"node":51,
						"path":"translation"
					}
				},
				{
					"sampler":10,
					"target":{
						"node":51,
						"path":"rotation"
					}
				},
				{
					"sampler":11,
					"target":{
						"node":51,
						"path":"scale"
					}
				},
				{
					"sampler":12,
					"target":{
						"node":2,
						"path":"translation"
					}
				},
				{
					"sampler":13,
					"target":{
						"node":2,
						"path":"rotation"
					}
				},
				{
					"sampler":14,
					"target":{
						"node":2,
						"path":"scale"
					}
				},
				{
					"sampler":15,
					"target":{
						"node":1,
						"path":"translation"
					}
				},
				{
					"sampler":16,
					"target":{
						"node":1,
						"path":"rotation"
					}
				},
				{
					"sampler":17,
					"target":{
						"node":1,
						"path":"scale"
					}
				},
				{
					"sampler":18,
					"target":{
						"node":0,
						"path":"translation"
					}
				},
				{
					"sampler":19,
					"target":{
						"node":0,
						"path":"rotation"
					}
				},
				{
					"sampler":20,
					"target":{
						"node":0,
						"path":"scale"
					}
				},
				{
					"sampler":21,
					"target":{
						"node":26,
						"path":"translation"
					}
				},
				{
					"sampler":22,
					"target":{
						"node":26,
						"path":"rotation"
					}
				},
				{
					"sampler":23,
					"target":{
						"node":26,
						"path":"scale"
					}
				},
				{
					"sampler":24,
					"target":{
						"node":25,
						"path":"translation"
					}
				},
				{
					"sampler":25,
					"target":{
						"node":25,
						"path":"rotation"
					}
				},
				{
					"sampler":26,
					"target":{
						"node":25,
						"path":"scale"
					}
				},
				{
					"sampler":27,
					"target":{
						"node":24,
						"path":"translation"
					}
				},
				{
					"sampler":28,
					"target":{
						"node":24,
						"path":"rotation"
					}
				},
				{
					"sampler":29,
					"target":{
						"node":24,
						"path":"scale"
					}
				},
				{
					"sampler":30,
					"target":{
						"node":23,
						"path":"translation"
					}
				},
				{
					"sampler":31,
					"target":{
						"node":23,
						"path":"rotation"
					}
				},
				{
					"sampler":32,
					"target":{
						"node":23,
						"path":"scale"
					}
				},
				{
					"sampler":33,
					"target":{
						"node":6,
						"path":"translation"
					}
				},
				{
					"sampler":34,
					"target":{
						"node":6,
						"path":"rotation"
					}
				},
				{
					"sampler":35,
					"target":{
						"node":6,
						"path":"scale"
					}
				},
				{
					"sampler":36,
					"target":{
						"node":5,
						"path":"translation"
					}
				},
				{
					"sampler":37,
					"target":{
						"node":5,
						"path":"rotation"
					}
				},
				{
					"sampler":38,
					"target":{
						"node":5,
						"path":"scale"
					}
				},
				{
					"sampler":39,
					"target":{
						"node":4,
						"path":"translation"
					}
				},
				{
					"sampler":40,
					"target":{
						"node":4,
						"path":"rotation"
					}
				},
				{
					"sampler":41,
					"target":{
						"node":4,
						"path":"scale"
					}
				},
				{
					"sampler":42,
					"target":{
						"node":3,
						"path":"translation"
					}
				},
				{
					"sampler":43,
					"target":{
						"node":3,
						"path":"rotation"
					}
				},
				{
					"sampler":44,
					"target":{
						"node":3,
						"path":"scale"
					}
				},
				{
					"sampler":45,
					"target":{
						"node":10,
						"path":"translation"
					}
				},
				{
					"sampler":46,
					"target":{
						"node":10,
						"path":"rotation"
					}
				},
				{
					"sampler":47,
					"target":{
						"node":10,
						"path":"scale"
					}
				},
				{
					"sampler":48,
					"target":{
						"node":9,
						"path":"translation"
					}
				},
				{
					"sampler":49,
					"target":{
						"node":9,
						"path":"rotation"
					}
				},
				{
					"sampler":50,
					"target":{
						"node":9,
						"path":"scale"
					}
				},
				{
					"sampler":51,
					"target":{
						"node":8,
						"path":"translation"
					}
				},
				{
					"sampler":52,
					"target":{
						"node":8,
						"path":"rotation"
					}
				},
				{
					"sampler":53,
					"target":{
						"node":8,
						"path":"scale"
					}
				},
				{
					"sampler":54,
					"target":{
						"node":7,
						"path":"translation"
					}
				},
				{
					"sampler":55,
					"target":{
						"node":7,
						"path":"rotation"
					}
				},
				{
					"sampler":56,
					"target":{
						"node":7,
						"path":"scale"
					}
				},
				{
					"sampler":57,
					"target":{
						"node":14,
						"path":"translation"
					}
				},
				{
					"sampler":58,
					"target":{
						"node":14,
						"path":"rotation"
					}
				},
				{
					"sampler":59,
					"target":{
						"node":14,
						"path":"scale"
					}
				},
				{
					"sampler":60,
					"target":{
						"node":13,
						"path":"translation"
					}
				},
				{
					"sampler":61,
					"target":{
						"node":13,
						"path":"rotation"
					}
				},
				{
					"sampler":62,
					"target":{
						"node":13,
						"path":"scale"
					}
				},
				{
					"sampler":63,
					"target":{
						"node":12,
						"path":"translation"
					}
				},
				{
					"sampler":64,
					"target":{
						"node":12,
						"path":"rotation"
					}
				},
				{
					"sampler":65,
					"target":{
						"node":12,
						"path":"scale"
					}
				},
				{
					"sampler":66,
					"target":{
						"node":11,
						"path":"translation"
					}
				},
				{
					"sampler":67,
					"target":{
						"node":11,
						"path":"rotation"
					}
				},
				{
					"sampler":68,
					"target":{
						"node":11,
						"path":"scale"
					}
				},
				{
					"sampler":69,
					"target":{
						"node":18,
						"path":"translation"
					}
				},
				{
					"sampler":70,
					"target":{
						"node":18,
						"path":"rotation"
					}
				},
				{
					"sampler":71,
					"target":{
						"node":18,
						"path":"scale"
					}
				},
				{
					"sampler":72,
					"target":{
						"node":17,
						"path":"translation"
					}
				},
				{
					"sampler":73,
					"target":{
						"node":17,
						"path":"rotation"
					}
				},
				{
					"sampler":74,
					"target":{
						"node":17,
						"path":"scale"
					}
				},
				{
					"sampler":75,
					"target":{
						"node":16,
						"path":"translation"
					}
				},
				{
					"sampler":76,
					"target":{
						"node":16,
						"path":"rotation"
					}
				},
				{
					"sampler":77,
					"target":{
						"node":16,
						"path":"scale"
					}
				},
				{
					"sampler":78,
					"target":{
						"node":15,
						"path":"translation"
					}
				},
				{
					"sampler":79,
					"target":{
						"node":15,
						"path":"rotation"
					}
				},
				{
					"sampler":80,
					"target":{
						"node":15,
						"path":"scale"
					}
				},
				{
					"sampler":81,
					"target":{
						"node":22,
						"path":"translation"
					}
				},
				{
					"sampler":82,
					"target":{
						"node":22,
						"path":"rotation"
					}
				},
				{
					"sampler":83,
					"target":{
						"node":22,
						"path":"scale"
					}
				},
				{
					"sampler":84,
					"target":{
						"node":21,
						"path":"translation"
					}
				},
				{
					"sampler":85,
					"target":{
						"node":21,
						"path":"rotation"
					}
				},
				{
					"sampler":86,
					"target":{
						"node":21,
						"path":"scale"
					}
				},
				{
					"sampler":87,
					"target":{
						"node":20,
						"path":"translation"
					}
				},
				{
					"sampler":88,
					"target":{
						"node":20,
						"path":"rotation"
					}
				},
				{
					"sampler":89,
					"target":{
						"node":20,
						"path":"scale"
					}
				},
				{
					"sampler":90,
					"target":{
						"node":19,
						"path":"translation"
					}
				},
				{
					"sampler":91,
					"target":{
						"node":19,
						"path":"rotation"
					}
				},
				{
					"sampler":92,
					"target":{
						"node":19,
						"path":"scale"
					}
				},
				{
					"sampler":93,
					"target":{
						"node":50,
						"path":"translation"
					}
				},
				{
					"sampler":94,
					"target":{
						"node":50,
						"path":"rotation"
					}
				},
				{
					"sampler":95,
					"target":{
						"node":50,
						"path":"scale"
					}
				},
				{
					"sampler":96,
					"target":{
						"node":49,
						"path":"translation"
					}
				},
				{
					"sampler":97,
					"target":{
						"node":49,
						"path":"rotation"
					}
				},
				{
					"sampler":98,
					"target":{
						"node":49,
						"path":"scale"
					}
				},
				{
					"sampler":99,
					"target":{
						"node":48,
						"path":"translation"
					}
				},
				{
					"sampler":100,
					"target":{
						"node":48,
						"path":"rotation"
					}
				},
				{
					"sampler":101,
					"target":{
						"node":48,
						"path":"scale"
					}
				},
				{
					"sampler":102,
					"target":{
						"node":47,
						"path":"translation"
					}
				},
				{
					"sampler":103,
					"target":{
						"node":47,
						"path":"rotation"
					}
				},
				{
					"sampler":104,
					"target":{
						"node":47,
						"path":"scale"
					}
				},
				{
					"sampler":105,
					"target":{
						"node":30,
						"path":"translation"
					}
				},
				{
					"sampler":106,
					"target":{
						"node":30,
						"path":"rotation"
					}
				},
				{
					"sampler":107,
					"target":{
						"node":30,
						"path":"scale"
					}
				},
				{
					"sampler":108,
					"target":{
						"node":29,
						"path":"translation"
					}
				},
				{
					"sampler":109,
					"target":{
						"node":29,
						"path":"rotation"
					}
				},
				{
					"sampler":110,
					"target":{
						"node":29,
						"path":"scale"
					}
				},
				{
					"sampler":111,
					"target":{
						"node":28,
						"path":"translation"
					}
				},
				{
					"sampler":112,
					"target":{
						"node":28,
						"path":"rotation"
					}
				},
				{
					"sampler":113,
					"target":{
						"node":28,
						"path":"scale"
					}
				},
				{
					"sampler":114,
					"target":{
						"node":27,
						"path":"translation"
					}
				},
				{
					"sampler":115,
					"target":{
						"node":27,
						"path":"rotation"
					}
				},
				{
					"sampler":116,
					"target":{
						"node":27,
						"path":"scale"
					}
				},
				{
					"sampler":117,
					"target":{
						"node":34,
						"path":"translation"
					}
				},
				{
					"sampler":118,
					"target":{
						"node":34,
						"path":"rotation"
					}
				},
				{
					"sampler":119,
					"target":{
						"node":34,
						"path":"scale"
					}
				},
				{
					"sampler":120,
					"target":{
						"node":33,
						"path":"translation"
					}
				},
				{
					"sampler":121,
					"target":{
						"node":33,
						"path":"rotation"
					}
				},
				{
					"sampler":122,
					"target":{
						"node":33,
						"path":"scale"
					}
				},
				{
					"sampler":123,
					"target":{
						"node":32,
						"path":"translation"
					}
				},
				{
					"sampler":124,
					"target":{
						"node":32,
						"path":"rotation"
					}
				},
				{
					"sampler":125,
					"target":{
						"node":32,
						"path":"scale"
					}
				},
				{
					"sampler":126,
					"target":{
						"node":31,
						"path":"translation"
					}
				},
				{
					"sampler":127,
					"target":{
						"node":31,
						"path":"rotation"
					}
				},
				{
					"sampler":128,
					"target":{
						"node":31,
						"path":"scale"
					}
				},
				{
					"sampler":129,
					"target":{
						"node":38,
						"path":"translation"
					}
				},
				{
					"sampler":130,
					"target":{
						"node":38,
						"path":"rotation"
					}
				},
				{
					"sampler":131,
					"target":{
						"node":38,
						"path":"scale"
					}
				},
				{
					"sampler":132,
					"target":{
						"node":37,
						"path":"translation"
					}
				},
				{
					"sampler":133,
					"target":{
						"node":37,
						"path":"rotation"
					}
				},
				{
					"sampler":134,
					"target":{
						"node":37,
						"path":"scale"
					}
				},
				{
					"sampler":135,
					"target":{
						"node":36,
						"path":"translation"
					}
				},
				{
					"sampler":136,
					"target":{
						"node":36,
						"path":"rotation"
					}
				},
				{
					"sampler":137,
					"target":{
						"node":36,
						"path":"scale"
					}
				},
				{
					"sampler":138,
					"target":{
						"node":35,
						"path":"translation"
					}
				},
				{
					"sampler":139,
					"target":{
						"node":35,
						"path":"rotation"
					}
				},
				{
					"sampler":140,
					"target":{
						"node":35,
						"path":"scale"
					}
				},
				{
					"sampler":141,
					"target":{
						"node":42,
						"path":"translation"
					}
				},
				{
					"sampler":142,
					"target":{
						"node":42,
						"path":"rotation"
					}
				},
				{
					"sampler":143,
					"target":{
						"node":42,
						"path":"scale"
					}
				},
				{
					"sampler":144,
					"target":{
						"node":41,
						"path":"translation"
					}
				},
				{
					"sampler":145,
					"target":{
						"node":41,
						"path":"rotation"
					}
				},
				{
					"sampler":146,
					"target":{
						"node":41,
						"path":"scale"
					}
				},
				{
					"sampler":147,
					"target":{
						"node":40,
						"path":"translation"
					}
				},
				{
					"sampler":148,
					"target":{
						"node":40,
						"path":"rotation"
					}
				},
				{
					"sampler":149,
					"target":{
						"node":40,
						"path":"scale"
					}
				},
				{
					"sampler":150,
					"target":{
						"node":39,
						"path":"translation"
					}
				},
				{
					"sampler":151,
					"target":{
						"node":39,
						"path":"rotation"
					}
				},
				{
					"sampler":152,
					"target":{
						"node":39,
						"path":"scale"
					}
				},
				{
					"sampler":153,
					"target":{
						"node":46,
						"path":"translation"
					}
				},
				{
					"sampler":154,
					"target":{
						"node":46,
						"path":"rotation"
					}
				},
				{
					"sampler":155,
					"target":{
						"node":46,
						"path":"scale"
					}
				},
				{
					"sampler":156,
					"target":{
						"node":45,
						"path":"translation"
					}
				},
				{
					"sampler":157,
					"target":{
						"node":45,
						"path":"rotation"
					}
				},
				{
					"sampler":158,
					"target":{
						"node":45,
						"path":"scale"
					}
				},
				{
					"sampler":159,
					"target":{
						"node":44,
						"path":"translation"
					}
				},
				{
					"sampler":160,
					"target":{
						"node":44,
						"path":"rotation"
					}
				},
				{
					"sampler":161,
					"target":{
						"node":44,
						"path":"scale"
					}
				},
				{
					"sampler":162,
					"target":{
						"node":43,
						"path":"translation"
					}
				},
				{
					"sampler":163,
					"target":{
						"node":43,
						"path":"rotation"
					}
				},
				{
					"sampler":164,
					"target":{
						"node":43,
						"path":"scale"
					}
				},
				{
					"sampler":165,
					"target":{
						"node":58,
						"path":"translation"
					}
				},
				{
					"sampler":166,
					"target":{
						"node":58,
						"path":"rotation"
					}
				},
				{
					"sampler":167,
					"target":{
						"node":58,
						"path":"scale"
					}
				},
				{
					"sampler":168,
					"target":{
						"node":57,
						"path":"translation"
					}
				},
				{
					"sampler":169,
					"target":{
						"node":57,
						"path":"rotation"
					}
				},
				{
					"sampler":170,
					"target":{
						"node":57,
						"path":"scale"
					}
				},
				{
					"sampler":171,
					"target":{
						"node":56,
						"path":"translation"
					}
				},
				{
					"sampler":172,
					"target":{
						"node":56,
						"path":"rotation"
					}
				},
				{
					"sampler":173,
					"target":{
						"node":56,
						"path":"scale"
					}
				},
				{
					"sampler":174,
					"target":{
						"node":55,
						"path":"translation"
					}
				},
				{
					"sampler":175,
					"target":{
						"node":55,
						"path":"rotation"
					}
				},
				{
					"sampler":176,
					"target":{
						"node":55,
						"path":"scale"
					}
				},
				{
					"sampler":177,
					"target":{
						"node":54,
						"path":"translation"
					}
				},
				{
					"sampler":178,
					"target":{
						"node":54,
						"path":"rotation"
					}
				},
				{
					"sampler":179,
					"target":{
						"node":54,
						"path":"scale"
					}
				},
				{
					"sampler":180,
					"target":{
						"node":63,
						"path":"translation"
					}
				},
				{
					"sampler":181,
					"target":{
						"node":63,
						"path":"rotation"
					}
				},
				{
					"sampler":182,
					"target":{
						"node":63,
						"path":"scale"
					}
				},
				{
					"sampler":183,
					"target":{
						"node":62,
						"path":"translation"
					}
				},
				{
					"sampler":184,
					"target":{
						"node":62,
						"path":"rotation"
					}
				},
				{
					"sampler":185,
					"target":{
						"node":62,
						"path":"scale"
					}
				},
				{
					"sampler":186,
					"target":{
						"node":61,
						"path":"translation"
					}
				},
				{
					"sampler":187,
					"target":{
						"node":61,
						"path":"rotation"
					}
				},
				{
					"sampler":188,
					"target":{
						"node":61,
						"path":"scale"
					}
				},
				{
					"sampler":189,
					"target":{
						"node":60,
						"path":"translation"
					}
				},
				{
					"sampler":190,
					"target":{
						"node":60,
						"path":"rotation"
					}
				},
				{
					"sampler":191,
					"target":{
						"node":60,
						"path":"scale"
					}
				},
				{
					"sampler":192,
					"target":{
						"node":59,
						"path":"translation"
					}
				},
				{
					"sampler":193,
					"target":{
						"node":59,
						"path":"rotation"
					}
				},
				{
					"sampler":194,
					"target":{
						"node":59,
						"path":"scale"
					}
				}
			],
			"name":"mixamo.com",
			"samplers":[
				{
					"input":20,
					"interpolation":"LINEAR",
					"output":21
				},
				{
					"input":20,
					"interpolation":"LINEAR",
					"output":22
				},
				{
					"input":23,
					"interpolation":"STEP",
					"output":24
				},
				{
					"input":23,
					"interpolation":"LINEAR",
					"output":25
				},
				{
					"input":20,
					"interpolation":"LINEAR",
					"output":26
				},
				{
					"input":23,
					"interpolation":"STEP",
					"output":27
				},
				{
					"input":23,
					"interpolation":"LINEAR",
					"output":28
				},
				{
					"input":20,
					"interpolation":"LINEAR",
					"output":29
				},
				{
					"input":23,
					"interpolation":"LINEAR",
					"output":30
				},
				{
					"input":23,
					"interpolation":"LINEAR",
					"output":31
				},
				{
					"input":20,
					"interpolation":"LINEAR",
					"output":32
				},
				{
					"input":23,
					"interpolation":"STEP",
					"output":33
				},
				{
					"input":23,
					"interpolation":"LINEAR",
					"output":34
				},
				{
					"input":20,
					"interpolation":"LINEAR",
					"output":35
				},
				{
					"input":23,
					"interpolation":"LINEAR",
					"output":36
				},
				{
					"input":23,
					"interpolation":"LINEAR",
					"output":37
				},
				{
					"input":20,
					"interpolation":"LINEAR",
					"output":38
				},
				{
					"input":23,
					"interpolation":"LINEAR",
					"output":39
				},
				{
					"input":23,
					"interpolation":"STEP",
					"output":40
				},
				{
					"input":23,
					"interpolation":"STEP",
					"output":41
				},
				{
					"input":23,
					"interpolation":"STEP",
					"output":42
				},
				{
					"input":23,
					"interpolation":"LINEAR",
					"output":43
				},
				{
					"input":20,
					"interpolation":"LINEAR",
					"output":44
				},
				{
					"input":23,
					"interpolation":"LINEAR",
					"output":45
				},
				{
					"input":23,
					"interpolation":"LINEAR",
					"output":46
				},
				{
					"input":20,
					"interpolation":"LINEAR",
					"output":47
				},
				{
					"input":23,
					"interpolation":"STEP",
					"output":48
				},
				{
					"input":23,
					"interpolation":"LINEAR",
					"output":49
				},
				{
					"input":20,
					"interpolation":"LINEAR",
					"output":50
				},
				{
					"input":23,
					"interpolation":"LINEAR",
					"output":51
				},
				{
					"input":23,
					"interpolation":"LINEAR",
					"output":52
				},
				{
					"input":20,
					"interpolation":"LINEAR",
					"output":53
				},
				{
					"input":23,
					"interpolation":"LINEAR",
					"output":54
				},
				{
					"input":23,
					"interpolation":"LINEAR",
					"output":55
				},
				{
					"input":20,
					"interpolation":"LINEAR",
					"output":56
				},
				{
					"input":23,
					"interpolation":"LINEAR",
					"output":57
				},
				{
					"input":23,
					"interpolation":"LINEAR",
					"output":58
				},
				{
					"input":20,
					"interpolation":"LINEAR",
					"output":59
				},
				{
					"input":23,
					"interpolation":"STEP",
					"output":60
				},
				{
					"input":23,
					"interpolation":"LINEAR",
					"output":61
				},
				{
					"input":20,
					"interpolation":"LINEAR",
					"output":62
				},
				{
					"input":23,
					"interpolation":"STEP",
					"output":63
				},
				{
					"input":23,
					"interpolation":"STEP",
					"output":64
				},
				{
					"input":23,
					"interpolation":"STEP",
					"output":65
				},
				{
					"input":23,
					"interpolation":"STEP",
					"output":66
				},
				{
					"input":23,
					"interpolation":"LINEAR",
					"output":67
				},
				{
					"input":20,
					"interpolation":"LINEAR",
					"output":68
				},
				{
					"input":23,
					"interpolation":"LINEAR",
					"output":69
				},
				{
					"input":23,
					"interpolation":"LINEAR",
					"output":70
				},
				{
					"input":20,
					"interpolation":"LINEAR",
					"output":71
				},
				{
					"input":23,
					"interpolation":"STEP",
					"output":72
				},
				{
					"input":23,
					"interpolation":"LINEAR",
					"output":73
				},
				{
					"input":20,
					"interpolation":"LINEAR",
					"output":74
				},
				{
					"input":23,
					"interpolation":"LINEAR",
					"output":75
				},
				{
					"input":23,
					"interpolation":"STEP",
					"output":76
				},
				{
					"input":23,
					"interpolation":"STEP",
					"output":77
				},
				{
					"input":23,
					"interpolation":"STEP",
					"output":78
				},
				{
					"input":23,
					"interpolation":"LINEAR",
					"output":79
				},
				{
					"input":20,
					"interpolation":"LINEAR",
					"output":80
				},
				{
					"input":23,
					"interpolation":"LINEAR",
					"output":81
				},
				{
					"input":23,
					"interpolation":"LINEAR",
					"output":82
				},
				{
					"input":20,
					"interpolation":"LINEAR",
					"output":83
				},
				{
					"input":23,
					"interpolation":"LINEAR",
					"output":84
				},
				{
					"input":23,
					"interpolation":"LINEAR",
					"output":85
				},
				{
					"input":20,
					"interpolation":"LINEAR",
					"output":86
				},
				{
					"input":23,
					"interpolation":"STEP",
					"output":87
				},
				{
					"input":23,
					"interpolation":"STEP",
					"output":88
				},
				{
					"input":23,
					"interpolation":"STEP",
					"output":89
				},
				{
					"input":23,
					"interpolation":"STEP",
					"output":90
				},
				{
					"input":23,
					"interpolation":"LINEAR",
					"output":91
				},
				{
					"input":20,
					"interpolation":"LINEAR",
					"output":92
				},
				{
					"input":23,
					"interpolation":"LINEAR",
					"output":93
				},
				{
					"input":23,
					"interpolation":"LINEAR",
					"output":94
				},
				{
					"input":20,
					"interpolation":"LINEAR",
					"output":95
				},
				{
					"input":23,
					"interpolation":"STEP",
					"output":96
				},
				{
					"input":23,
					"interpolation":"LINEAR",
					"output":97
				},
				{
					"input":20,
					"interpolation":"LINEAR",
					"output":98
				},
				{
					"input":23,
					"interpolation":"STEP",
					"output":99
				},
				{
					"input":23,
					"interpolation":"STEP",
					"output":100
				},
				{
					"input":23,
					"interpolation":"STEP",
					"output":101
				},
				{
					"input":23,
					"interpolation":"STEP",
					"output":102
				},
				{
					"input":23,
					"interpolation":"LINEAR",
					"output":103
				},
				{
					"input":20,
					"interpolation":"LINEAR",
					"output":104
				},
				{
					"input":23,
					"interpolation":"LINEAR",
					"output":105
				},
				{
					"input":23,
					"interpolation":"LINEAR",
					"output":106
				},
				{
					"input":20,
					"interpolation":"LINEAR",
					"output":107
				},
				{
					"input":23,
					"interpolation":"LINEAR",
					"output":108
				},
				{
					"input":23,
					"interpolation":"LINEAR",
					"output":109
				},
				{
					"input":20,
					"interpolation":"LINEAR",
					"output":110
				},
				{
					"input":23,
					"interpolation":"LINEAR",
					"output":111
				},
				{
					"input":23,
					"interpolation":"STEP",
					"output":112
				},
				{
					"input":23,
					"interpolation":"STEP",
					"output":113
				},
				{
					"input":23,
					"interpolation":"STEP",
					"output":114
				},
				{
					"input":23,
					"interpolation":"LINEAR",
					"output":115
				},
				{
					"input":20,
					"interpolation":"LINEAR",
					"output":116
				},
				{
					"input":23,
					"interpolation":"LINEAR",
					"output":117
				},
				{
					"input":23,
					"interpolation":"LINEAR",
					"output":118
				},
				{
					"input":20,
					"interpolation":"LINEAR",
					"output":119
				},
				{
					"input":23,
					"interpolation":"STEP",
					"output":120
				},
				{
					"input":23,
					"interpolation":"LINEAR",
					"output":121
				},
				{
					"input":20,
					"interpolation":"LINEAR",
					"output":122
				},
				{
					"input":23,
					"interpolation":"STEP",
					"output":123
				},
				{
					"input":23,
					"interpolation":"LINEAR",
					"output":124
				},
				{
					"input":20,
					"interpolation":"LINEAR",
					"output":125
				},
				{
					"input":23,
					"interpolation":"LINEAR",
					"output":126
				},
				{
					"input":23,
					"interpolation":"LINEAR",
					"output":127
				},
				{
					"input":20,
					"interpolation":"LINEAR",
					"output":128
				},
				{
					"input":23,
					"interpolation":"LINEAR",
					"output":129
				},
				{
					"input":23,
					"interpolation":"LINEAR",
					"output":130
				},
				{
					"input":20,
					"interpolation":"LINEAR",
					"output":131
				},
				{
					"input":23,
					"interpolation":"LINEAR",
					"output":132
				},
				{
					"input":23,
					"interpolation":"LINEAR",
					"output":133
				},
				{
					"input":20,
					"interpolation":"LINEAR",
					"output":134
				},
				{
					"input":23,
					"interpolation":"LINEAR",
					"output":135
				},
				{
					"input":23,
					"interpolation":"STEP",
					"output":136
				},
				{
					"input":23,
					"interpolation":"STEP",
					"output":137
				},
				{
					"input":23,
					"interpolation":"STEP",
					"output":138
				},
				{
					"input":23,
					"interpolation":"LINEAR",
					"output":139
				},
				{
					"input":20,
					"interpolation":"LINEAR",
					"output":140
				},
				{
					"input":23,
					"interpolation":"STEP",
					"output":141
				},
				{
					"input":23,
					"interpolation":"LINEAR",
					"output":142
				},
				{
					"input":20,
					"interpolation":"LINEAR",
					"output":143
				},
				{
					"input":23,
					"interpolation":"LINEAR",
					"output":144
				},
				{
					"input":23,
					"interpolation":"LINEAR",
					"output":145
				},
				{
					"input":20,
					"interpolation":"LINEAR",
					"output":146
				},
				{
					"input":23,
					"interpolation":"STEP",
					"output":147
				},
				{
					"input":23,
					"interpolation":"STEP",
					"output":148
				},
				{
					"input":23,
					"interpolation":"STEP",
					"output":149
				},
				{
					"input":23,
					"interpolation":"STEP",
					"output":150
				},
				{
					"input":23,
					"interpolation":"LINEAR",
					"output":151
				},
				{
					"input":20,
					"interpolation":"LINEAR",
					"output":152
				},
				{
					"input":23,
					"interpolation":"STEP",
					"output":153
				},
				{
					"input":23,
					"interpolation":"LINEAR",
					"output":154
				},
				{
					"input":20,
					"interpolation":"LINEAR",
					"output":155
				},
				{
					"input":23,
					"interpolation":"STEP",
					"output":96
				},
				{
					"input":23,
					"interpolation":"LINEAR",
					"output":156
				},
				{
					"input":20,
					"interpolation":"LINEAR",
					"output":157
				},
				{
					"input":23,
					"interpolation":"STEP",
					"output":158
				},
				{
					"input":23,
					"interpolation":"STEP",
					"output":159
				},
				{
					"input":23,
					"interpolation":"STEP",
					"output":160
				},
				{
					"input":23,
					"interpolation":"STEP",
					"output":161
				},
				{
					"input":23,
					"interpolation":"LINEAR",
					"output":162
				},
				{
					"input":20,
					"interpolation":"LINEAR",
					"output":163
				},
				{
					"input":23,
					"interpolation":"STEP",
					"output":164
				},
				{
					"input":23,
					"interpolation":"LINEAR",
					"output":165
				},
				{
					"input":20,
					"interpolation":"LINEAR",
					"output":166
				},
				{
					"input":23,
					"interpolation":"LINEAR",
					"output":167
				},
				{
					"input":23,
					"interpolation":"LINEAR",
					"output":168
				},
				{
					"input":20,
					"interpolation":"LINEAR",
					"output":169
				},
				{
					"input":23,
					"interpolation":"LINEAR",
					"output":170
				},
				{
					"input":23,
					"interpolation":"STEP",
					"output":171
				},
				{
					"input":23,
					"interpolation":"STEP",
					"output":172
				},
				{
					"input":23,
					"interpolation":"STEP",
					"output":173
				},
				{
					"input":23,
					"interpolation":"LINEAR",
					"output":174
				},
				{
					"input":20,
					"interpolation":"LINEAR",
					"output":175
				},
				{
					"input":23,
					"interpolation":"LINEAR",
					"output":176
				},
				{
					"input":23,
					"interpolation":"LINEAR",
					"output":177
				},
				{
					"input":20,
					"interpolation":"LINEAR",
					"output":178
				},
				{
					"input":23,
					"interpolation":"LINEAR",
					"output":179
				},
				{
					"input":23,
					"interpolation":"LINEAR",
					"output":180
				},
				{
					"input":20,
					"interpolation":"LINEAR",
					"output":181
				},
				{
					"input":23,
					"interpolation":"STEP",
					"output":182
				},
				{
					"input":23,
					"interpolation":"STEP",
					"output":183
				},
				{
					"input":23,
					"interpolation":"STEP",
					"output":184
				},
				{
					"input":23,
					"interpolation":"STEP",
					"output":185
				},
				{
					"input":23,
					"interpolation":"LINEAR",
					"output":186
				},
				{
					"input":20,
					"interpolation":"LINEAR",
					"output":187
				},
				{
					"input":23,
					"interpolation":"LINEAR",
					"output":188
				},
				{
					"input":23,
					"interpolation":"LINEAR",
					"output":189
				},
				{
					"input":20,
					"interpolation":"LINEAR",
					"output":190
				},
				{
					"input":23,
					"interpolation":"STEP",
					"output":191
				},
				{
					"input":23,
					"interpolation":"LINEAR",
					"output":192
				},
				{
					"input":20,
					"interpolation":"LINEAR",
					"output":193
				},
				{
					"input":23,
					"interpolation":"LINEAR",
					"output":194
				},
				{
					"input":23,
					"interpolation":"LINEAR",
					"output":195
				},
				{
					"input":20,
					"interpolation":"LINEAR",
					"output":196
				},
				{
					"input":23,
					"interpolation":"LINEAR",
					"output":197
				},
				{
					"input":23,
					"interpolation":"STEP",
					"output":198
				},
				{
					"input":23,
					"interpolation":"STEP",
					"output":199
				},
				{
					"input":23,
					"interpolation":"STEP",
					"output":200
				},
				{
					"input":23,
					"interpolation":"LINEAR",
					"output":201
				},
				{
					"input":20,
					"interpolation":"LINEAR",
					"output":202
				},
				{
					"input":23,
					"interpolation":"LINEAR",
					"output":203
				},
				{
					"input":23,
					"interpolation":"LINEAR",
					"output":204
				},
				{
					"input":20,
					"interpolation":"LINEAR",
					"output":205
				},
				{
					"input":23,
					"interpolation":"STEP",
					"output":206
				},
				{
					"input":23,
					"interpolation":"LINEAR",
					"output":207
				},
				{
					"input":20,
					"interpolation":"LINEAR",
					"output":208
				},
				{
					"input":23,
					"interpolation":"LINEAR",
					"output":209
				},
				{
					"input":23,
					"interpolation":"LINEAR",
					"output":210
				},
				{
					"input":20,
					"interpolation":"LINEAR",
					"output":211
				},
				{
					"input":23,
					"interpolation":"STEP",
					"output":212
				},
				{
					"input":23,
					"interpolation":"STEP",
					"output":213
				},
				{
					"input":23,
					"interpolation":"STEP",
					"output":214
				},
				{
					"input":23,
					"interpolation":"STEP",
					"output":96
				}
			]
		}
	],
	"materials":[
		{
			"doubleSided":true,
			"extensions":{
				"KHR_materials_specular":{
					"specularColorFactor":[
						0.4000000059604645,
						0.4000000059604645,
						0.4000000059604645
					]
				}
			},
			"name":"skin",
			"normalTexture":{
				"index":0
			},
			"pbrMetallicRoughness":{
				"baseColorFactor":[
					0.21586056053638458,
					0.09305897355079651,
					0.06124605983495712,
					1
				],
				"metallicFactor":0,
				"roughnessFactor":0.6000000238418579
			}
		},
		{
			"doubleSided":true,
			"name":"hair",
			"pbrMetallicRoughness":{
				"baseColorFactor":[
					0.04970657825469971,
					0.006048833951354027,
					0.006995411589741707,
					1
				],
				"metallicFactor":0,
				"roughnessFactor":0.8045459985733032
			}
		},
		{
			"doubleSided":true,
			"name":"pants",
			"pbrMetallicRoughness":{
				"baseColorFactor":[
					0.027606025338172913,
					0.02785700187087059,
					0.2744050920009613,
					1
				],
				"metallicFactor":0,
				"roughnessFactor":0.5
			}
		}
	],
	"meshes":[
		{
			"name":"Object_0.002",
			"primitives":[
				{
					"attributes":{
						"POSITION":0,
						"NORMAL":1,
						"TEXCOORD_0":2,
						"JOINTS_0":3,
						"WEIGHTS_0":4
					},
					"indices":5,
					"material":0
				}
			]
		},
		{
			"name":"Sphere.002",
			"primitives":[
				{
					"attributes":{
						"POSITION":7,
						"NORMAL":8,
						"COLOR_0":9,
						"COLOR_1":10,
						"JOINTS_0":11,
						"WEIGHTS_0":12
					},
					"indices":13,
					"material":1
				}
			]
		},
		{
			"name":"Object_0.001",
			"primitives":[
				{
					"attributes":{
						"POSITION":14,
						"NORMAL":15,
						"TEXCOORD_0":16,
						"JOINTS_0":17,
						"WEIGHTS_0":18
					},
					"indices":19,
					"material":2
				}
			]
		}
	],
	"textures":[
		{
			"sampler":0,
			"source":0
		}
	],
	"images":[
		{
			"mimeType":"image/png",
			"name":"material_0_normal",
			"uri":"material_0_normal.png"
		}
	],
	"skins":[
		{
			"inverseBindMatrices":6,
			"joints":[
				64,
				53,
				52,
				51,
				2,
				1,
				0,
				26,
				25,
				24,
				23,
				6,
				5,
				4,
				3,
				10,
				9,
				8,
				7,
				14,
				13,
				12,
				11,
				18,
				17,
				16,
				15,
				22,
				21,
				20,
				19,
				50,
				49,
				48,
				47,
				30,
				29,
				28,
				27,
				34,
				33,
				32,
				31,
				38,
				37,
				36,
				35,
				42,
				41,
				40,
				39,
				46,
				45,
				44,
				43,
				58,
				57,
				56,
				55,
				54,
				63,
				62,
				61,
				60,
				59
			],
			"name":"Armature.001"
		}
	],
	"accessors":[
		{
			"bufferView":0,
			"componentType":5126,
			"count":41214,
			"max":[
				-1.7260856628417969,
				1.8027472496032715,
				0.15409702062606812
			],
			"min":[
				-2.667698621749878,
				-0.001859971322119236,
				-0.16115723550319672
			],
			"type":"VEC3"
		},
		{
			"bufferView":1,
			"componentType":5126,
			"count":41214,
			"type":"VEC3"
		},
		{
			"bufferView":2,
			"componentType":5126,
			"count":41214,
			"type":"VEC2"
		},
		{
			"bufferView":3,
			"componentType":5121,
			"count":41214,
			"type":"VEC4"
		},
		{
			"bufferView":4,
			"componentType":5126,
			"count":41214,
			"type":"VEC4"
		},
		{
			"bufferView":5,
			"componentType":5123,
			"count":232296,
			"type":"SCALAR"
		},
		{
			"bufferView":6,
			"componentType":5126,
			"count":65,
			"type":"MAT4"
		},
		{
			"bufferView":7,
			"componentType":5126,
			"count":232730,
			"max":[
				-1.9758182764053345,
				2.0532548427581787,
				0.09105253964662552
			],
			"min":[
				-2.4276227951049805,
				1.5705126523971558,
				-0.5460892915725708
			],
			"type":"VEC3"
		},
		{
			"bufferView":8,
			"componentType":5126,
			"count":232730,
			"type":"VEC3"
		},
		{
			"bufferView":9,
			"componentType":5121,
			"count":232730,
			"normalized":true,
			"type":"VEC4"
		},
		{
			"bufferView":10,
			"componentType":5123,
			"count":232730,
			"normalized":true,
			"type":"VEC4"
		},
		{
			"bufferView":11,
			"componentType":5121,
			"count":232730,
			"type":"VEC4"
		},
		{
			"bufferView":12,
			"componentType":5126,
			"count":232730,
			"type":"VEC4"
		},
		{
			"bufferView":13,
			"componentType":5125,
			"count":357060,
			"type":"SCALAR"
		},
		{
			"bufferView":14,
			"componentType":5126,
			"count":5252,
			"max":[
				-2.0051074028015137,
				1.058679223060608,
				0.11355612426996231
			],
			"min":[
				-2.3886666297912598,
				0.5672300457954407,
				-0.14538608491420746
			],
			"type":"VEC3"
		},
		{
			"bufferView":15,
			"componentType":5126,
			"count":5252,
			"type":"VEC3"
		},
		{
			"bufferView":16,
			"componentType":5126,
			"count":5252,
			"type":"VEC2"
		},
		{
			"bufferView":17,
			"componentType":5121,
			"count":5252,
			"type":"VEC4"
		},
		{
			"bufferView":18,
			"componentType":5126,
			"count":5252,
			"type":"VEC4"
		},
		{
			"bufferView":19,
			"componentType":5123,
			"count":31380,
			"type":"SCALAR"
		},
		{
			"bufferView":20,
			"componentType":5126,
			"count":343,
			"max":[
				11.433333333333334
			],
			"min":[
				0.03333333333333333
			],
			"type":"SCALAR"
		},
		{
			"bufferView":21,
			"componentType":5126,
			"count":343,
			"type":"VEC3"
		},
		{
			"bufferView":22,
			"componentType":5126,
			"count":343,
			"type":"VEC4"
		},
		{
			"bufferView":23,
			"componentType":5126,
			"count":2,
			"max":[
				11.433333333333334
			],
			"min":[
				0.03333333333333333
			],
			"type":"SCALAR"
		},
		{
			"bufferView":24,
			"componentType":5126,
			"count":2,
			"type":"VEC3"
		},
		{
			"bufferView":25,
			"componentType":5126,
			"count":2,
			"type":"VEC3"
		},
		{
			"bufferView":26,
			"componentType":5126,
			"count":343,
			"type":"VEC4"
		},
		{
			"bufferView":27,
			"componentType":5126,
			"count":2,
			"type":"VEC3"
		},
		{
			"bufferView":28,
			"componentType":5126,
			"count":2,
			"type":"VEC3"
		},
		{
			"bufferView":29,
			"componentType":5126,
			"count":343,
			"type":"VEC4"
		},
		{
			"bufferView":30,
			"componentType":5126,
			"count":2,
			"type":"VEC3"
		},
		{
			"bufferView":31,
			"componentType":5126,
			"count":2,
			"type":"VEC3"
		},
		{
			"bufferView":32,
			"componentType":5126,
			"count":343,
			"type":"VEC4"
		},
		{
			"bufferView":33,
			"componentType":5126,
			"count":2,
			"type":"VEC3"
		},
		{
			"bufferView":34,
			"componentType":5126,
			"count":2,
			"type":"VEC3"
		},
		{
			"bufferView":35,
			"componentType":5126,
			"count":343,
			"type":"VEC4"
		},
		{
			"bufferView":36,
			"componentType":5126,
			"count":2,
			"type":"VEC3"
		},
		{
			"bufferView":37,
			"componentType":5126,
			"count":2,
			"type":"VEC3"
		},
		{
			"bufferView":38,
			"componentType":5126,
			"count":343,
			"type":"VEC4"
		},
		{
			"bufferView":39,
			"componentType":5126,
			"count":2,
			"type":"VEC3"
		},
		{
			"bufferView":40,
			"componentType":5126,
			"count":2,
			"type":"VEC3"
		},
		{
			"bufferView":41,
			"componentType":5126,
			"count":2,
			"type":"VEC4"
		},
		{
			"bufferView":42,
			"componentType":5126,
			"count":2,
			"type":"VEC3"
		},
		{
			"bufferView":43,
			"componentType":5126,
			"count":2,
			"type":"VEC3"
		},
		{
			"bufferView":44,
			"componentType":5126,
			"count":343,
			"type":"VEC4"
		},
		{
			"bufferView":45,
			"componentType":5126,
			"count":2,
			"type":"VEC3"
		},
		{
			"bufferView":46,
			"componentType":5126,
			"count":2,
			"type":"VEC3"
		},
		{
			"bufferView":47,
			"componentType":5126,
			"count":343,
			"type":"VEC4"
		},
		{
			"bufferView":48,
			"componentType":5126,
			"count":2,
			"type":"VEC3"
		},
		{
			"bufferView":49,
			"componentType":5126,
			"count":2,
			"type":"VEC3"
		},
		{
			"bufferView":50,
			"componentType":5126,
			"count":343,
			"type":"VEC4"
		},
		{
			"bufferView":51,
			"componentType":5126,
			"count":2,
			"type":"VEC3"
		},
		{
			"bufferView":52,
			"componentType":5126,
			"count":2,
			"type":"VEC3"
		},
		{
			"bufferView":53,
			"componentType":5126,
			"count":343,
			"type":"VEC4"
		},
		{
			"bufferView":54,
			"componentType":5126,
			"count":2,
			"type":"VEC3"
		},
		{
			"bufferView":55,
			"componentType":5126,
			"count":2,
			"type":"VEC3"
		},
		{
			"bufferView":56,
			"componentType":5126,
			"count":343,
			"type":"VEC4"
		},
		{
			"bufferView":57,
			"componentType":5126,
			"count":2,
			"type":"VEC3"
		},
		{
			"bufferView":58,
			"componentType":5126,
			"count":2,
			"type":"VEC3"
		},
		{
			"bufferView":59,
			"componentType":5126,
			"count":343,
			"type":"VEC4"
		},
		{
			"bufferView":60,
			"componentType":5126,
			"count":2,
			"type":"VEC3"
		},
		{
			"bufferView":61,
			"componentType":5126,
			"count":2,
			"type":"VEC3"
		},
		{
			"bufferView":62,
			"componentType":5126,
			"count":343,
			"type":"VEC4"
		},
		{
			"bufferView":63,
			"componentType":5126,
			"count":2,
			"type":"VEC3"
		},
		{
			"bufferView":64,
			"componentType":5126,
			"count":2,
			"type":"VEC3"
		},
		{
			"bufferView":65,
			"componentType":5126,
			"count":2,
			"type":"VEC4"
		},
		{
			"bufferView":66,
			"componentType":5126,
			"count":2,
			"type":"VEC3"
		},
		{
			"bufferView":67,
			"componentType":5126,
			"count":2,
			"type":"VEC3"
		},
		{
			"bufferView":68,
			"componentType":5126,
			"count":343,
			"type":"VEC4"
		},
		{
			"bufferView":69,
			"componentType":5126,
			"count":2,
			"type":"VEC3"
		},
		{
			"bufferView":70,
			"componentType":5126,
			"count":2,
			"type":"VEC3"
		},
		{
			"bufferView":71,
			"componentType":5126,
			"count":343,
			"type":"VEC4"
		},
		{
			"bufferView":72,
			"componentType":5126,
			"count":2,
			"type":"VEC3"
		},
		{
			"bufferView":73,
			"componentType":5126,
			"count":2,
			"type":"VEC3"
		},
		{
			"bufferView":74,
			"componentType":5126,
			"count":343,
			"type":"VEC4"
		},
		{
			"bufferView":75,
			"componentType":5126,
			"count":2,
			"type":"VEC3"
		},
		{
			"bufferView":76,
			"componentType":5126,
			"count":2,
			"type":"VEC3"
		},
		{
			"bufferView":77,
			"componentType":5126,
			"count":2,
			"type":"VEC4"
		},
		{
			"bufferView":78,
			"componentType":5126,
			"count":2,
			"type":"VEC3"
		},
		{
			"bufferView":79,
			"componentType":5126,
			"count":2,
			"type":"VEC3"
		},
		{
			"bufferView":80,
			"componentType":5126,
			"count":343,
			"type":"VEC4"
		},
		{
			"bufferView":81,
			"componentType":5126,
			"count":2,
			"type":"VEC3"
		},
		{
			"bufferView":82,
			"componentType":5126,
			"count":2,
			"type":"VEC3"
		},
		{
			"bufferView":83,
			"componentType":5126,
			"count":343,
			"type":"VEC4"
		},
		{
			"bufferView":84,
			"componentType":5126,
			"count":2,
			"type":"VEC3"
		},
		{
			"bufferView":85,
			"componentType":5126,
			"count":2,
			"type":"VEC3"
		},
		{
			"bufferView":86,
			"componentType":5126,
			"count":343,
			"type":"VEC4"
		},
		{
			"bufferView":87,
			"componentType":5126,
			"count":2,
			"type":"VEC3"
		},
		{
			"bufferView":88,
			"componentType":5126,
			"count":2,
			"type":"VEC3"
		},
		{
			"bufferView":89,
			"componentType":5126,
			"count":2,
			"type":"VEC4"
		},
		{
			"bufferView":90,
			"componentType":5126,
			"count":2,
			"type":"VEC3"
		},
		{
			"bufferView":91,
			"componentType":5126,
			"count":2,
			"type":"VEC3"
		},
		{
			"bufferView":92,
			"componentType":5126,
			"count":343,
			"type":"VEC4"
		},
		{
			"bufferView":93,
			"componentType":5126,
			"count":2,
			"type":"VEC3"
		},
		{
			"bufferView":94,
			"componentType":5126,
			"count":2,
			"type":"VEC3"
		},
		{
			"bufferView":95,
			"componentType":5126,
			"count":343,
			"type":"VEC4"
		},
		{
			"bufferView":96,
			"componentType":5126,
			"count":2,
			"type":"VEC3"
		},
		{
			"bufferView":97,
			"componentType":5126,
			"count":2,
			"type":"VEC3"
		},
		{
			"bufferView":98,
			"componentType":5126,
			"count":343,
			"type":"VEC4"
		},
		{
			"bufferView":99,
			"componentType":5126,
			"count":2,
			"type":"VEC3"
		},
		{
			"bufferView":100,
			"componentType":5126,
			"count":2,
			"type":"VEC3"
		},
		{
			"bufferView":101,
			"componentType":5126,
			"count":2,
			"type":"VEC4"
		},
		{
			"bufferView":102,
			"componentType":5126,
			"count":2,
			"type":"VEC3"
		},
		{
			"bufferView":103,
			"componentType":5126,
			"count":2,
			"type":"VEC3"
		},
		{
			"bufferView":104,
			"componentType":5126,
			"count":343,
			"type":"VEC4"
		},
		{
			"bufferView":105,
			"componentType":5126,
			"count":2,
			"type":"VEC3"
		},
		{
			"bufferView":106,
			"componentType":5126,
			"count":2,
			"type":"VEC3"
		},
		{
			"bufferView":107,
			"componentType":5126,
			"count":343,
			"type":"VEC4"
		},
		{
			"bufferView":108,
			"componentType":5126,
			"count":2,
			"type":"VEC3"
		},
		{
			"bufferView":109,
			"componentType":5126,
			"count":2,
			"type":"VEC3"
		},
		{
			"bufferView":110,
			"componentType":5126,
			"count":343,
			"type":"VEC4"
		},
		{
			"bufferView":111,
			"componentType":5126,
			"count":2,
			"type":"VEC3"
		},
		{
			"bufferView":112,
			"componentType":5126,
			"count":2,
			"type":"VEC3"
		},
		{
			"bufferView":113,
			"componentType":5126,
			"count":2,
			"type":"VEC4"
		},
		{
			"bufferView":114,
			"componentType":5126,
			"count":2,
			"type":"VEC3"
		},
		{
			"bufferView":115,
			"componentType":5126,
			"count":2,
			"type":"VEC3"
		},
		{
			"bufferView":116,
			"componentType":5126,
			"count":343,
			"type":"VEC4"
		},
		{
			"bufferView":117,
			"componentType":5126,
			"count":2,
			"type":"VEC3"
		},
		{
			"bufferView":118,
			"componentType":5126,
			"count":2,
			"type":"VEC3"
		},
		{
			"bufferView":119,
			"componentType":5126,
			"count":343,
			"type":"VEC4"
		},
		{
			"bufferView":120,
			"componentType":5126,
			"count":2,
			"type":"VEC3"
		},
		{
			"bufferView":121,
			"componentType":5126,
			"count":2,
			"type":"VEC3"
		},
		{
			"bufferView":122,
			"componentType":5126,
			"count":343,
			"type":"VEC4"
		},
		{
			"bufferView":123,
			"componentType":5126,
			"count":2,
			"type":"VEC3"
		},
		{
			"bufferView":124,
			"componentType":5126,
			"count":2,
			"type":"VEC3"
		},
		{
			"bufferView":125,
			"componentType":5126,
			"count":343,
			"type":"VEC4"
		},
		{
			"bufferView":126,
			"componentType":5126,
			"count":2,
			"type":"VEC3"
		},
		{
			"bufferView":127,
			"componentType":5126,
			"count":2,
			"type":"VEC3"
		},
		{
			"bufferView":128,
			"componentType":5126,
			"count":343,
			"type":"VEC4"
		},
		{
			"bufferView":129,
			"componentType":5126,
			"count":2,
			"type":"VEC3"
		},
		{
			"bufferView":130,
			"componentType":5126,
			"count":2,
			"type":"VEC3"
		},
		{
			"bufferView":131,
			"componentType":5126,
			"count":343,
			"type":"VEC4"
		},
		{
			"bufferView":132,
			"componentType":5126,
			"count":2,
			"type":"VEC3"
		},
		{
			"bufferView":133,
			"componentType":5126,
			"count":2,
			"type":"VEC3"
		},
		{
			"bufferView":134,
			"componentType":5126,
			"count":343,
			"type":"VEC4"
		},
		{
			"bufferView":135,
			"componentType":5126,
			"count":2,
			"type":"VEC3"
		},
		{
			"bufferView":136,
			"componentType":5126,
			"count":2,
			"type":"VEC3"
		},
		{
			"bufferView":137,
			"componentType":5126,
			"count":2,
			"type":"VEC4"
		},
		{
			"bufferView":138,
			"componentType":5126,
			"count":2,
			"type":"VEC3"
		},
		{
			"bufferView":139,
			"componentType":5126,
			"count":2,
			"type":"VEC3"
		},
		{
			"bufferView":140,
			"componentType":5126,
			"count":343,
			"type":"VEC4"
		},
		{
			"bufferView":141,
			"componentType":5126,
			"count":2,
			"type":"VEC3"
		},
		{
			"bufferView":142,
			"componentType":5126,
			"count":2,
			"type":"VEC3"
		},
		{
			"bufferView":143,
			"componentType":5126,
			"count":343,
			"type":"VEC4"
		},
		{
			"bufferView":144,
			"componentType":5126,
			"count":2,
			"type":"VEC3"
		},
		{
			"bufferView":145,
			"componentType":5126,
			"count":2,
			"type":"VEC3"
		},
		{
			"bufferView":146,
			"componentType":5126,
			"count":343,
			"type":"VEC4"
		},
		{
			"bufferView":147,
			"componentType":5126,
			"count":2,
			"type":"VEC3"
		},
		{
			"bufferView":148,
			"componentType":5126,
			"count":2,
			"type":"VEC3"
		},
		{
			"bufferView":149,
			"componentType":5126,
			"count":2,
			"type":"VEC4"
		},
		{
			"bufferView":150,
			"componentType":5126,
			"count":2,
			"type":"VEC3"
		},
		{
			"bufferView":151,
			"componentType":5126,
			"count":2,
			"type":"VEC3"
		},
		{
			"bufferView":152,
			"componentType":5126,
			"count":343,
			"type":"VEC4"
		},
		{
			"bufferView":153,
			"componentType":5126,
			"count":2,
			"type":"VEC3"
		},
		{
			"bufferView":154,
			"componentType":5126,
			"count":2,
			"type":"VEC3"
		},
		{
			"bufferView":155,
			"componentType":5126,
			"count":343,
			"type":"VEC4"
		},
		{
			"bufferView":156,
			"componentType":5126,
			"count":2,
			"type":"VEC3"
		},
		{
			"bufferView":157,
			"componentType":5126,
			"count":343,
			"type":"VEC4"
		},
		{
			"bufferView":158,
			"componentType":5126,
			"count":2,
			"type":"VEC3"
		},
		{
			"bufferView":159,
			"componentType":5126,
			"count":2,
			"type":"VEC3"
		},
		{
			"bufferView":160,
			"componentType":5126,
			"count":2,
			"type":"VEC4"
		},
		{
			"bufferView":161,
			"componentType":5126,
			"count":2,
			"type":"VEC3"
		},
		{
			"bufferView":162,
			"componentType":5126,
			"count":2,
			"type":"VEC3"
		},
		{
			"bufferView":163,
			"componentType":5126,
			"count":343,
			"type":"VEC4"
		},
		{
			"bufferView":164,
			"componentType":5126,
			"count":2,
			"type":"VEC3"
		},
		{
			"bufferView":165,
			"componentType":5126,
			"count":2,
			"type":"VEC3"
		},
		{
			"bufferView":166,
			"componentType":5126,
			"count":343,
			"type":"VEC4"
		},
		{
			"bufferView":167,
			"componentType":5126,
			"count":2,
			"type":"VEC3"
		},
		{
			"bufferView":168,
			"componentType":5126,
			"count":2,
			"type":"VEC3"
		},
		{
			"bufferView":169,
			"componentType":5126,
			"count":343,
			"type":"VEC4"
		},
		{
			"bufferView":170,
			"componentType":5126,
			"count":2,
			"type":"VEC3"
		},
		{
			"bufferView":171,
			"componentType":5126,
			"count":2,
			"type":"VEC3"
		},
		{
			"bufferView":172,
			"componentType":5126,
			"count":2,
			"type":"VEC4"
		},
		{
			"bufferView":173,
			"componentType":5126,
			"count":2,
			"type":"VEC3"
		},
		{
			"bufferView":174,
			"componentType":5126,
			"count":2,
			"type":"VEC3"
		},
		{
			"bufferView":175,
			"componentType":5126,
			"count":343,
			"type":"VEC4"
		},
		{
			"bufferView":176,
			"componentType":5126,
			"count":2,
			"type":"VEC3"
		},
		{
			"bufferView":177,
			"componentType":5126,
			"count":2,
			"type":"VEC3"
		},
		{
			"bufferView":178,
			"componentType":5126,
			"count":343,
			"type":"VEC4"
		},
		{
			"bufferView":179,
			"componentType":5126,
			"count":2,
			"type":"VEC3"
		},
		{
			"bufferView":180,
			"componentType":5126,
			"count":2,
			"type":"VEC3"
		},
		{
			"bufferView":181,
			"componentType":5126,
			"count":343,
			"type":"VEC4"
		},
		{
			"bufferView":182,
			"componentType":5126,
			"count":2,
			"type":"VEC3"
		},
		{
			"bufferView":183,
			"componentType":5126,
			"count":2,
			"type":"VEC3"
		},
		{
			"bufferView":184,
			"componentType":5126,
			"count":2,
			"type":"VEC4"
		},
		{
			"bufferView":185,
			"componentType":5126,
			"count":2,
			"type":"VEC3"
		},
		{
			"bufferView":186,
			"componentType":5126,
			"count":2,
			"type":"VEC3"
		},
		{
			"bufferView":187,
			"componentType":5126,
			"count":343,
			"type":"VEC4"
		},
		{
			"bufferView":188,
			"componentType":5126,
			"count":2,
			"type":"VEC3"
		},
		{
			"bufferView":189,
			"componentType":5126,
			"count":2,
			"type":"VEC3"
		},
		{
			"bufferView":190,
			"componentType":5126,
			"count":343,
			"type":"VEC4"
		},
		{
			"bufferView":191,
			"componentType":5126,
			"count":2,
			"type":"VEC3"
		},
		{
			"bufferView":192,
			"componentType":5126,
			"count":2,
			"type":"VEC3"
		},
		{
			"bufferView":193,
			"componentType":5126,
			"count":343,
			"type":"VEC4"
		},
		{
			"bufferView":194,
			"componentType":5126,
			"count":2,
			"type":"VEC3"
		},
		{
			"bufferView":195,
			"componentType":5126,
			"count":2,
			"type":"VEC3"
		},
		{
			"bufferView":196,
			"componentType":5126,
			"count":343,
			"type":"VEC4"
		},
		{
			"bufferView":197,
			"componentType":5126,
			"count":2,
			"type":"VEC3"
		},
		{
			"bufferView":198,
			"componentType":5126,
			"count":2,
			"type":"VEC3"
		},
		{
			"bufferView":199,
			"componentType":5126,
			"count":2,
			"type":"VEC4"
		},
		{
			"bufferView":200,
			"componentType":5126,
			"count":2,
			"type":"VEC3"
		},
		{
			"bufferView":201,
			"componentType":5126,
			"count":2,
			"type":"VEC3"
		},
		{
			"bufferView":202,
			"componentType":5126,
			"count":343,
			"type":"VEC4"
		},
		{
			"bufferView":203,
			"componentType":5126,
			"count":2,
			"type":"VEC3"
		},
		{
			"bufferView":204,
			"componentType":5126,
			"count":2,
			"type":"VEC3"
		},
		{
			"bufferView":205,
			"componentType":5126,
			"count":343,
			"type":"VEC4"
		},
		{
			"bufferView":206,
			"componentType":5126,
			"count":2,
			"type":"VEC3"
		},
		{
			"bufferView":207,
			"componentType":5126,
			"count":2,
			"type":"VEC3"
		},
		{
			"bufferView":208,
			"componentType":5126,
			"count":343,
			"type":"VEC4"
		},
		{
			"bufferView":209,
			"componentType":5126,
			"count":2,
			"type":"VEC3"
		},
		{
			"bufferView":210,
			"componentType":5126,
			"count":2,
			"type":"VEC3"
		},
		{
			"bufferView":211,
			"componentType":5126,
			"count":343,
			"type":"VEC4"
		},
		{
			"bufferView":212,
			"componentType":5126,
			"count":2,
			"type":"VEC3"
		},
		{
			"bufferView":213,
			"componentType":5126,
			"count":2,
			"type":"VEC3"
		},
		{
			"bufferView":214,
			"componentType":5126,
			"count":2,
			"type":"VEC4"
		}
	],
	"bufferViews":[
		{
			"buffer":0,
			"byteLength":494568,
			"byteOffset":0,
			"target":34962
		},
		{
			"buffer":0,
			"byteLength":494568,
			"byteOffset":494568,
			"target":34962
		},
		{
			"buffer":0,
			"byteLength":329712,
			"byteOffset":989136,
			"target":34962
		},
		{
			"buffer":0,
			"byteLength":164856,
			"byteOffset":1318848,
			"target":34962
		},
		{
			"buffer":0,
			"byteLength":659424,
			"byteOffset":1483704,
			"target":34962
		},
		{
			"buffer":0,
			"byteLength":464592,
			"byteOffset":2143128,
			"target":34963
		},
		{
			"buffer":0,
			"byteLength":4160,
			"byteOffset":2607720
		},
		{
			"buffer":0,
			"byteLength":2792760,
			"byteOffset":2611880,
			"target":34962
		},
		{
			"buffer":0,
			"byteLength":2792760,
			"byteOffset":5404640,
			"target":34962
		},
		{
			"buffer":0,
			"byteLength":930920,
			"byteOffset":8197400,
			"target":34962
		},
		{
			"buffer":0,
			"byteLength":1861840,
			"byteOffset":9128320,
			"target":34962
		},
		{
			"buffer":0,
			"byteLength":930920,
			"byteOffset":10990160,
			"target":34962
		},
		{
			"buffer":0,
			"byteLength":3723680,
			"byteOffset":11921080,
			"target":34962
		},
		{
			"buffer":0,
			"byteLength":1428240,
			"byteOffset":15644760,
			"target":34963
		},
		{
			"buffer":0,
			"byteLength":63024,
			"byteOffset":17073000,
			"target":34962
		},
		{
			"buffer":0,
			"byteLength":63024,
			"byteOffset":17136024,
			"target":34962
		},
		{
			"buffer":0,
			"byteLength":42016,
			"byteOffset":17199048,
			"target":34962
		},
		{
			"buffer":0,
			"byteLength":21008,
			"byteOffset":17241064,
			"target":34962
		},
		{
			"buffer":0,
			"byteLength":84032,
			"byteOffset":17262072,
			"target":34962
		},
		{
			"buffer":0,
			"byteLength":62760,
			"byteOffset":17346104,
			"target":34963
		},
		{
			"buffer":0,
			"byteLength":1372,
			"byteOffset":17408864
		},
		{
			"buffer":0,
			"byteLength":4116,
			"byteOffset":17410236
		},
		{
			"buffer":0,
			"byteLength":5488,
			"byteOffset":17414352
		},
		{
			"buffer":0,
			"byteLength":8,
			"byteOffset":17419840
		},
		{
			"buffer":0,
			"byteLength":24,
			"byteOffset":17419848
		},
		{
			"buffer":0,
			"byteLength":24,
			"byteOffset":17419872
		},
		{
			"buffer":0,
			"byteLength":5488,
			"byteOffset":17419896
		},
		{
			"buffer":0,
			"byteLength":24,
			"byteOffset":17425384
		},
		{
			"buffer":0,
			"byteLength":24,
			"byteOffset":17425408
		},
		{
			"buffer":0,
			"byteLength":5488,
			"byteOffset":17425432
		},
		{
			"buffer":0,
			"byteLength":24,
			"byteOffset":17430920
		},
		{
			"buffer":0,
			"byteLength":24,
			"byteOffset":17430944
		},
		{
			"buffer":0,
			"byteLength":5488,
			"byteOffset":17430968
		},
		{
			"buffer":0,
			"byteLength":24,
			"byteOffset":17436456
		},
		{
			"buffer":0,
			"byteLength":24,
			"byteOffset":17436480
		},
		{
			"buffer":0,
			"byteLength":5488,
			"byteOffset":17436504
		},
		{
			"buffer":0,
			"byteLength":24,
			"byteOffset":17441992
		},
		{
			"buffer":0,
			"byteLength":24,
			"byteOffset":17442016
		},
		{
			"buffer":0,
			"byteLength":5488,
			"byteOffset":17442040
		},
		{
			"buffer":0,
			"byteLength":24,
			"byteOffset":17447528
		},
		{
			"buffer":0,
			"byteLength":24,
			"byteOffset":17447552
		},
		{
			"buffer":0,
			"byteLength":32,
			"byteOffset":17447576
		},
		{
			"buffer":0,
			"byteLength":24,
			"byteOffset":17447608
		},
		{
			"buffer":0,
			"byteLength":24,
			"byteOffset":17447632
		},
		{
			"buffer":0,
			"byteLength":5488,
			"byteOffset":17447656
		},
		{
			"buffer":0,
			"byteLength":24,
			"byteOffset":17453144
		},
		{
			"buffer":0,
			"byteLength":24,
			"byteOffset":17453168
		},
		{
			"buffer":0,
			"byteLength":5488,
			"byteOffset":17453192
		},
		{
			"buffer":0,
			"byteLength":24,
			"byteOffset":17458680
		},
		{
			"buffer":0,
			"byteLength":24,
			"byteOffset":17458704
		},
		{
			"buffer":0,
			"byteLength":5488,
			"byteOffset":17458728
		},
		{
			"buffer":0,
			"byteLength":24,
			"byteOffset":17464216
		},
		{
			"buffer":0,
			"byteLength":24,
			"byteOffset":17464240
		},
		{
			"buffer":0,
			"byteLength":5488,
			"byteOffset":17464264
		},
		{
			"buffer":0,
			"byteLength":24,
			"byteOffset":17469752
		},
		{
			"buffer":0,
			"byteLength":24,
			"byteOffset":17469776
		},
		{
			"buffer":0,
			"byteLength":5488,
			"byteOffset":17469800
		},
		{
			"buffer":0,
			"byteLength":24,
			"byteOffset":17475288
		},
		{
			"buffer":0,
			"byteLength":24,
			"byteOffset":17475312
		},
		{
			"buffer":0,
			"byteLength":5488,
			"byteOffset":17475336
		},
		{
			"buffer":0,
			"byteLength":24,
			"byteOffset":17480824
		},
		{
			"buffer":0,
			"byteLength":24,
			"byteOffset":17480848
		},
		{
			"buffer":0,
			"byteLength":5488,
			"byteOffset":17480872
		},
		{
			"buffer":0,
			"byteLength":24,
			"byteOffset":17486360
		},
		{
			"buffer":0,
			"byteLength":24,
			"byteOffset":17486384
		},
		{
			"buffer":0,
			"byteLength":32,
			"byteOffset":17486408
		},
		{
			"buffer":0,
			"byteLength":24,
			"byteOffset":17486440
		},
		{
			"buffer":0,
			"byteLength":24,
			"byteOffset":17486464
		},
		{
			"buffer":0,
			"byteLength":5488,
			"byteOffset":17486488
		},
		{
			"buffer":0,
			"byteLength":24,
			"byteOffset":17491976
		},
		{
			"buffer":0,
			"byteLength":24,
			"byteOffset":17492000
		},
		{
			"buffer":0,
			"byteLength":5488,
			"byteOffset":17492024
		},
		{
			"buffer":0,
			"byteLength":24,
			"byteOffset":17497512
		},
		{
			"buffer":0,
			"byteLength":24,
			"byteOffset":17497536
		},
		{
			"buffer":0,
			"byteLength":5488,
			"byteOffset":17497560
		},
		{
			"buffer":0,
			"byteLength":24,
			"byteOffset":17503048
		},
		{
			"buffer":0,
			"byteLength":24,
			"byteOffset":17503072
		},
		{
			"buffer":0,
			"byteLength":32,
			"byteOffset":17503096
		},
		{
			"buffer":0,
			"byteLength":24,
			"byteOffset":17503128
		},
		{
			"buffer":0,
			"byteLength":24,
			"byteOffset":17503152
		},
		{
			"buffer":0,
			"byteLength":5488,
			"byteOffset":17503176
		},
		{
			"buffer":0,
			"byteLength":24,
			"byteOffset":17508664
		},
		{
			"buffer":0,
			"byteLength":24,
			"byteOffset":17508688
		},
		{
			"buffer":0,
			"byteLength":5488,
			"byteOffset":17508712
		},
		{
			"buffer":0,
			"byteLength":24,
			"byteOffset":17514200
		},
		{
			"buffer":0,
			"byteLength":24,
			"byteOffset":17514224
		},
		{
			"buffer":0,
			"byteLength":5488,
			"byteOffset":17514248
		},
		{
			"buffer":0,
			"byteLength":24,
			"byteOffset":17519736
		},
		{
			"buffer":0,
			"byteLength":24,
			"byteOffset":17519760
		},
		{
			"buffer":0,
			"byteLength":32,
			"byteOffset":17519784
		},
		{
			"buffer":0,
			"byteLength":24,
			"byteOffset":17519816
		},
		{
			"buffer":0,
			"byteLength":24,
			"byteOffset":17519840
		},
		{
			"buffer":0,
			"byteLength":5488,
			"byteOffset":17519864
		},
		{
			"buffer":0,
			"byteLength":24,
			"byteOffset":17525352
		},
		{
			"buffer":0,
			"byteLength":24,
			"byteOffset":17525376
		},
		{
			"buffer":0,
			"byteLength":5488,
			"byteOffset":17525400
		},
		{
			"buffer":0,
			"byteLength":24,
			"byteOffset":17530888
		},
		{
			"buffer":0,
			"byteLength":24,
			"byteOffset":17530912
		},
		{
			"buffer":0,
			"byteLength":5488,
			"byteOffset":17530936
		},
		{
			"buffer":0,
			"byteLength":24,
			"byteOffset":17536424
		},
		{
			"buffer":0,
			"byteLength":24,
			"byteOffset":17536448
		},
		{
			"buffer":0,
			"byteLength":32,
			"byteOffset":17536472
		},
		{
			"buffer":0,
			"byteLength":24,
			"byteOffset":17536504
		},
		{
			"buffer":0,
			"byteLength":24,
			"byteOffset":17536528
		},
		{
			"buffer":0,
			"byteLength":5488,
			"byteOffset":17536552
		},
		{
			"buffer":0,
			"byteLength":24,
			"byteOffset":17542040
		},
		{
			"buffer":0,
			"byteLength":24,
			"byteOffset":17542064
		},
		{
			"buffer":0,
			"byteLength":5488,
			"byteOffset":17542088
		},
		{
			"buffer":0,
			"byteLength":24,
			"byteOffset":17547576
		},
		{
			"buffer":0,
			"byteLength":24,
			"byteOffset":17547600
		},
		{
			"buffer":0,
			"byteLength":5488,
			"byteOffset":17547624
		},
		{
			"buffer":0,
			"byteLength":24,
			"byteOffset":17553112
		},
		{
			"buffer":0,
			"byteLength":24,
			"byteOffset":17553136
		},
		{
			"buffer":0,
			"byteLength":32,
			"byteOffset":17553160
		},
		{
			"buffer":0,
			"byteLength":24,
			"byteOffset":17553192
		},
		{
			"buffer":0,
			"byteLength":24,
			"byteOffset":17553216
		},
		{
			"buffer":0,
			"byteLength":5488,
			"byteOffset":17553240
		},
		{
			"buffer":0,
			"byteLength":24,
			"byteOffset":17558728
		},
		{
			"buffer":0,
			"byteLength":24,
			"byteOffset":17558752
		},
		{
			"buffer":0,
			"byteLength":5488,
			"byteOffset":17558776
		},
		{
			"buffer":0,
			"byteLength":24,
			"byteOffset":17564264
		},
		{
			"buffer":0,
			"byteLength":24,
			"byteOffset":17564288
		},
		{
			"buffer":0,
			"byteLength":5488,
			"byteOffset":17564312
		},
		{
			"buffer":0,
			"byteLength":24,
			"byteOffset":17569800
		},
		{
			"buffer":0,
			"byteLength":24,
			"byteOffset":17569824
		},
		{
			"buffer":0,
			"byteLength":5488,
			"byteOffset":17569848
		},
		{
			"buffer":0,
			"byteLength":24,
			"byteOffset":17575336
		},
		{
			"buffer":0,
			"byteLength":24,
			"byteOffset":17575360
		},
		{
			"buffer":0,
			"byteLength":5488,
			"byteOffset":17575384
		},
		{
			"buffer":0,
			"byteLength":24,
			"byteOffset":17580872
		},
		{
			"buffer":0,
			"byteLength":24,
			"byteOffset":17580896
		},
		{
			"buffer":0,
			"byteLength":5488,
			"byteOffset":17580920
		},
		{
			"buffer":0,
			"byteLength":24,
			"byteOffset":17586408
		},
		{
			"buffer":0,
			"byteLength":24,
			"byteOffset":17586432
		},
		{
			"buffer":0,
			"byteLength":5488,
			"byteOffset":17586456
		},
		{
			"buffer":0,
			"byteLength":24,
			"byteOffset":17591944
		},
		{
			"buffer":0,
			"byteLength":24,
			"byteOffset":17591968
		},
		{
			"buffer":0,
			"byteLength":32,
			"byteOffset":17591992
		},
		{
			"buffer":0,
			"byteLength":24,
			"byteOffset":17592024
		},
		{
			"buffer":0,
			"byteLength":24,
			"byteOffset":17592048
		},
		{
			"buffer":0,
			"byteLength":5488,
			"byteOffset":17592072
		},
		{
			"buffer":0,
			"byteLength":24,
			"byteOffset":17597560
		},
		{
			"buffer":0,
			"byteLength":24,
			"byteOffset":17597584
		},
		{
			"buffer":0,
			"byteLength":5488,
			"byteOffset":17597608
		},
		{
			"buffer":0,
			"byteLength":24,
			"byteOffset":17603096
		},
		{
			"buffer":0,
			"byteLength":24,
			"byteOffset":17603120
		},
		{
			"buffer":0,
			"byteLength":5488,
			"byteOffset":17603144
		},
		{
			"buffer":0,
			"byteLength":24,
			"byteOffset":17608632
		},
		{
			"buffer":0,
			"byteLength":24,
			"byteOffset":17608656
		},
		{
			"buffer":0,
			"byteLength":32,
			"byteOffset":17608680
		},
		{
			"buffer":0,
			"byteLength":24,
			"byteOffset":17608712
		},
		{
			"buffer":0,
			"byteLength":24,
			"byteOffset":17608736
		},
		{
			"buffer":0,
			"byteLength":5488,
			"byteOffset":17608760
		},
		{
			"buffer":0,
			"byteLength":24,
			"byteOffset":17614248
		},
		{
			"buffer":0,
			"byteLength":24,
			"byteOffset":17614272
		},
		{
			"buffer":0,
			"byteLength":5488,
			"byteOffset":17614296
		},
		{
			"buffer":0,
			"byteLength":24,
			"byteOffset":17619784
		},
		{
			"buffer":0,
			"byteLength":5488,
			"byteOffset":17619808
		},
		{
			"buffer":0,
			"byteLength":24,
			"byteOffset":17625296
		},
		{
			"buffer":0,
			"byteLength":24,
			"byteOffset":17625320
		},
		{
			"buffer":0,
			"byteLength":32,
			"byteOffset":17625344
		},
		{
			"buffer":0,
			"byteLength":24,
			"byteOffset":17625376
		},
		{
			"buffer":0,
			"byteLength":24,
			"byteOffset":17625400
		},
		{
			"buffer":0,
			"byteLength":5488,
			"byteOffset":17625424
		},
		{
			"buffer":0,
			"byteLength":24,
			"byteOffset":17630912
		},
		{
			"buffer":0,
			"byteLength":24,
			"byteOffset":17630936
		},
		{
			"buffer":0,
			"byteLength":5488,
			"byteOffset":17630960
		},
		{
			"buffer":0,
			"byteLength":24,
			"byteOffset":17636448
		},
		{
			"buffer":0,
			"byteLength":24,
			"byteOffset":17636472
		},
		{
			"buffer":0,
			"byteLength":5488,
			"byteOffset":17636496
		},
		{
			"buffer":0,
			"byteLength":24,
			"byteOffset":17641984
		},
		{
			"buffer":0,
			"byteLength":24,
			"byteOffset":17642008
		},
		{
			"buffer":0,
			"byteLength":32,
			"byteOffset":17642032
		},
		{
			"buffer":0,
			"byteLength":24,
			"byteOffset":17642064
		},
		{
			"buffer":0,
			"byteLength":24,
			"byteOffset":17642088
		},
		{
			"buffer":0,
			"byteLength":5488,
			"byteOffset":17642112
		},
		{
			"buffer":0,
			"byteLength":24,
			"byteOffset":17647600
		},
		{
			"buffer":0,
			"byteLength":24,
			"byteOffset":17647624
		},
		{
			"buffer":0,
			"byteLength":5488,
			"byteOffset":17647648
		},
		{
			"buffer":0,
			"byteLength":24,
			"byteOffset":17653136
		},
		{
			"buffer":0,
			"byteLength":24,
			"byteOffset":17653160
		},
		{
			"buffer":0,
			"byteLength":5488,
			"byteOffset":17653184
		},
		{
			"buffer":0,
			"byteLength":24,
			"byteOffset":17658672
		},
		{
			"buffer":0,
			"byteLength":24,
			"byteOffset":17658696
		},
		{
			"buffer":0,
			"byteLength":32,
			"byteOffset":17658720
		},
		{
			"buffer":0,
			"byteLength":24,
			"byteOffset":17658752
		},
		{
			"buffer":0,
			"byteLength":24,
			"byteOffset":17658776
		},
		{
			"buffer":0,
			"byteLength":5488,
			"byteOffset":17658800
		},
		{
			"buffer":0,
			"byteLength":24,
			"byteOffset":17664288
		},
		{
			"buffer":0,
			"byteLength":24,
			"byteOffset":17664312
		},
		{
			"buffer":0,
			"byteLength":5488,
			"byteOffset":17664336
		},
		{
			"buffer":0,
			"byteLength":24,
			"byteOffset":17669824
		},
		{
			"buffer":0,
			"byteLength":24,
			"byteOffset":17669848
		},
		{
			"buffer":0,
			"byteLength":5488,
			"byteOffset":17669872
		},
		{
			"buffer":0,
			"byteLength":24,
			"byteOffset":17675360
		},
		{
			"buffer":0,
			"byteLength":24,
			"byteOffset":17675384
		},
		{
			"buffer":0,
			"byteLength":5488,
			"byteOffset":17675408
		},
		{
			"buffer":0,
			"byteLength":24,
			"byteOffset":17680896
		},
		{
			"buffer":0,
			"byteLength":24,
			"byteOffset":17680920
		},
		{
			"buffer":0,
			"byteLength":32,
			"byteOffset":17680944
		},
		{
			"buffer":0,
			"byteLength":24,
			"byteOffset":17680976
		},
		{
			"buffer":0,
			"byteLength":24,
			"byteOffset":17681000
		},
		{
			"buffer":0,
			"byteLength":5488,
			"byteOffset":17681024
		},
		{
			"buffer":0,
			"byteLength":24,
			"byteOffset":17686512
		},
		{
			"buffer":0,
			"byteLength":24,
			"byteOffset":17686536
		},
		{
			"buffer":0,
			"byteLength":5488,
			"byteOffset":17686560
		},
		{
			"buffer":0,
			"byteLength":24,
			"byteOffset":17692048
		},
		{
			"buffer":0,
			"byteLength":24,
			"byteOffset":17692072
		},
		{
			"buffer":0,
			"byteLength":5488,
			"byteOffset":17692096
		},
		{
			"buffer":0,
			"byteLength":24,
			"byteOffset":17697584
		},
		{
			"buffer":0,
			"byteLength":24,
			"byteOffset":17697608
		},
		{
			"buffer":0,
			"byteLength":5488,
			"byteOffset":17697632
		},
		{
			"buffer":0,
			"byteLength":24,
			"byteOffset":17703120
		},
		{
			"buffer":0,
			"byteLength":24,
			"byteOffset":17703144
		},
		{
			"buffer":0,
			"byteLength":32,
			"byteOffset":17703168
		}
	],
	"samplers":[
		{
			"magFilter":9729,
			"minFilter":9987
		}
	],
	"buffers":[
		{
			"byteLength":17703200,
			"uri":"Hero-4.bin"
		}
	]
}
